<svg xmlns="http://www.w3.org/2000/svg" width="103" height="118" viewBox="0 0 103 118"><g><g><path fill="#5593a5" d="M100.385 14.767c-.074.333-.416.178-.635.176-4.53-.037-9.062-.098-13.593-.117-.628-.002-.655-.276-.658-.766-.002-.51.073-.754.682-.744 4.53.07 9.061.104 13.592.151.197.002.406-.032.596.135.123.373.1.782.016 1.165zm-.594 3.815c-4.575-.069-9.15-.104-13.726-.155-.205-.002-.507.092-.56-.214a2.963 2.963 0 0 1 .034-1.22c.158-.015.31-.044.462-.043 4.597.045 9.194.106 13.791.126.702.004.58.41.602.83.022.447-.044.684-.603.676zm.568 2.818c-.04 3.215-.069 28.992-.101 32.207-.127 12.436-.254 24.872-.384 37.308-.003.262.061.536-.082.764-.152.14-3.002.121-3.123-.014-.15-.168-.097-.382-.095-.578.082-8.15.166-16.298.249-24.447.076-7.48.15-37.52.227-45 .01-.939.01-.937.954-.915.603.013 1.208.06 1.807.02.549-.038.553.256.548.655zm-9.468-.228c-.005-.39.094-.553.532-.534.98.044 1.962.05 2.942.021.577-.017.517.336.513.702-.04 3.793-.08 30.148-.118 33.942-.12 11.828-.24 23.656-.364 35.484-.003.284.054.58-.087.84-.15.118-.31.08-.464.08-.936-.002-1.873-.035-2.808.002-.52.02-.636-.168-.629-.656.05-3.324.07-6.648.104-9.972.059-5.868.12-11.736.18-17.603l.175-17.269c.008-.825.033-24.212.023-25.037zm8.377 73.402a3541.216 3541.216 0 0 1-3.93 9.229c-.572 1.336-.58 1.332-2.063 1.319-.98-.009-1.962-.027-2.943-.021-.379.002-.609-.111-.76-.492-1.353-3.396-2.72-6.786-4.097-10.172-.197-.485-.214-.68.433-.67 4.303.068 8.606.095 12.91.138.176.001.351.025.52.038.191.252.01.442-.07.631zm-14.315-3.72c.054-3.729.083-7.457.121-11.186.121-11.856.242-46.272.366-58.128.003-.285-.05-.58.08-.837.151-.128.311-.088.465-.088.759-.003 1.518.015 2.276-.016.437-.018.511.166.507.556-.14 12.094-.27 46.75-.4 58.844-.039 3.637-.086 7.274-.093 10.912 0 .63-.187.81-.8.738a8.214 8.214 0 0 0-1.802-.027c-.655.07-.728-.226-.72-.768zM23.79 104.262c-.427.001-.871-.068-1.279-.197-1.037-.327-1.614-1.492-1.302-2.536.306-1.02 1.128-1.571 2.454-1.579 2.567-.014 5.134-.004 7.701-.004v.004h2.693l2.694.001c.928.002 1.86-.052 2.782.02 1.751.137 2.692 1.757 1.874 3.18-.505.88-1.36 1.124-2.304 1.117-1.918-.013-3.837-.064-5.755-.061-3.186.006-6.372.049-9.558.055zm.102-11.755c2.506-.005 5.011-.001 7.517.001 2.505 0 5.01.004 7.516-.004a4.4 4.4 0 0 1 1.283.167c1.065.317 1.643 1.302 1.397 2.379-.283 1.24-1.064 1.771-2.66 1.773-5.007.005-10.013.003-15.02 0-1.741 0-2.786-.803-2.824-2.156-.037-1.329 1.027-2.157 2.79-2.16zm-.82-41.948c-1.28-.128-1.883-.789-1.88-2.06.003-1.261.692-1.986 1.915-2.014 1.237-.028 2.076.721 2.16 1.927.167 2.382.167 2.382-2.195 2.147zm14.378-1.542c.034-.305.044-.616.109-.915.25-1.146 1.113-1.727 2.346-1.602 1.11.113 1.716.833 1.71 2.031-.009 1.41-.775 2.053-2.476 2.075-1.611.02-1.611.02-1.69-1.59zm-3.213 36.066c1.852.041 3.71-.154 5.557.092 1.209.161 1.839.869 1.834 2.041-.004 1.187-.621 1.902-1.827 2.052-1.354.169-2.713.055-4.072.039-3.61-.043-7.22-.015-11.091-.015-.415-.079-1.092.15-1.774-.007-1.131-.263-1.696-.936-1.691-2.1.004-1.088.573-1.798 1.668-2.02.39-.08.798-.093 1.198-.094 3.4-.009 6.8-.065 10.198.012zm.076-25.811a658.67 658.67 0 0 0-.07 7.986c-.012 3.25-.003 6.5-.003 9.749h.066c0 1.331-.019 2.663.008 3.994.013.638-.11.958-.877.915a34.412 34.412 0 0 0-3.982.008c-.774.047-.96-.23-.968-.937-.02-1.795.046-3.588.03-5.384-.039-4.582.099-9.167.039-13.749-.03-2.323.019-4.648-.07-6.97-.033-.876.29-1.14 1.13-1.1 1.233.06 2.469.19 3.704.017.786-.11 1.071.268.99 1.018-.163 1.484.026 2.968.003 4.453zM15.215 70.736C6.863 64.695 2.898 56.404 3.354 46.076c.26-5.89 2.342-11.165 6.04-15.699 6.038-7.404 13.854-11.198 23.488-10.682 9.768.523 17.268 5.134 22.494 13.326 3.261 5.11 4.516 10.8 4.073 16.87-.315 4.319-1.58 8.317-3.735 12.052-2.308 4.001-5.499 7.13-9.323 9.69-3.246 2.174-5.151 5.31-5.902 9.122-.174.886-.522 1.266-1.41 1.16a3.697 3.697 0 0 0-.832.017c-.598.065-.837-.161-.82-.786.043-1.607.044-3.215.046-4.822.004-5.472.001-10.944.001-16.416h-.044c0-1.639-.007-3.278.002-4.916.007-1.214.062-1.268 1.26-1.167 1.167.099 2.301-.03 3.34-.576 2.376-1.25 3.412-3.946 2.544-6.51-.818-2.416-3.323-3.885-5.901-3.461-2.497.41-4.341 2.626-4.37 5.253-.005.465-.014.93.006 1.395.021.498-.149.747-.692.727-.926-.033-1.856-.061-2.781-.02-2.32.106-2.32.122-2.344-2.157-.026-2.454-1.502-4.39-3.869-5.072-2.148-.619-4.556.265-5.802 2.13-1.309 1.957-1.174 4.603.332 6.413 1.388 1.668 3.269 2.03 5.287 1.905.684-.042.95.058.924.81a156.248 156.248 0 0 0-.081 5.938c.01 3.056.084 6.112.083 9.169-.002 3.4-.064 6.801-.087 10.202-.014 2.109-.002 2.088-2.14 1.893-.462-.042-.666-.196-.741-.628-.803-4.592-3.467-7.812-7.185-10.5zm84.871-68.544c-.666-.731-1.994-1.468-3.52-1.866-1.69-.441-3.422-.322-5.131-.277-4.663.124-8.104 3.569-8.288 8.22-.05 1.293-.042 2.589-.055 3.883-.197 19.353-.394 61.267-.59 80.62-.004.378 0 .746.15 1.115 2.882 7.142 5.756 14.288 8.634 21.433H48.151c-4.352 0-8.703-.001-13.054 0-.26 0-.514-.028-.758-.122-.825-.318-1.397-1.148-1.41-2.05-.007-.486-.01-.972-.014-1.458 1.61-.754 2.774-1.883 3.004-3.776.066-.543.429-.518.81-.518.99-.002 1.979-.014 2.968-.007 2.07.015 3.545-.985 4.524-2.736.993-1.775.922-3.596-.146-5.294-.442-.702-.487-1.143-.034-1.875 1.225-1.975 1.165-4.002-.19-5.925-.295-.42-.327-.724-.03-1.157 1.496-2.172 1.427-4.346-.091-6.479-.27-.38-.322-.748-.286-1.213.31-3.99 2.36-6.85 5.586-9.073 7.092-4.888 11.55-11.573 13.175-20.05 2.959-15.435-6.118-30.79-21.014-35.65-1.678-.547-3.402-.928-5.14-1.239h-9.483c-2.13.531-4.29.944-6.335 1.788-9.212 3.8-15.527 10.373-18.647 19.852-2.746 8.346-1.866 16.48 2.173 24.22 2.28 4.37 5.505 8.016 9.608 10.8 2.48 1.683 4.457 3.725 5.445 6.619.344 1.01.418 2.061.588 3.099.05.299-.109.537-.275.766-1.588 2.187-1.655 4.401-.097 6.63.251.36.24.64-.02 1.001-1.45 2.01-1.447 4.093-.165 6.167.358.578.369.957-.02 1.554-1.112 1.705-1.267 3.538-.283 5.37.99 1.844 2.522 2.842 4.658 2.826.958-.007 1.916.004 2.874.007.378.002.747-.026.814.517.24 1.975 1.501 3.116 3.215 3.873h.126c.006.56.003 1.12.003 1.68.084.617.203 1.226.49 1.786.808 1.572 2.05 2.535 3.838 2.734.044.005.087.02.13.03l57.18.001s.853-1.612 1.143-2.572c3.026-7.097 6.049-14.196 9.077-21.293.135-.316.184-.635.188-.975.208-20.67.419-63.901.63-84.57.023-2.326-.79-4.314-2.82-6.416z"/></g></g></svg>