<svg xmlns="http://www.w3.org/2000/svg" width="113" height="118" viewBox="0 0 113 118"><g><g><g><g><path fill="#5593a5" d="M42.117 86.522h3.268v2.94h-3.268zm6.869-3.601h-10.47v10.142h10.47z"/></g></g><g><g><path fill="#5593a5" d="M42.117 97.515h3.268v2.94h-3.268zm6.869-3.601h-10.47v10.142h10.47z"/></g></g><g><g><g><g><g><path fill="#5593a5" d="M2.164 110.724L.44 104.777a10.945 10.945 0 0 1-.44-3.05v-90.79C0 4.908 4.908 0 10.939 0c6.03 0 10.938 4.907 10.938 10.938v90.789h-3.602v-90.79c0-4.045-3.291-7.336-7.336-7.336-4.046 0-7.337 3.291-7.337 7.337v87.658c1.94-1.85 4.547-3.014 7.5-2.641l-.45 3.572c-2.442-.306-5.64 1.429-6.754 5.252z"/></g></g></g><g><g><path fill="#5593a5" d="M112.286 117.693H10.876C4.88 117.693 0 112.814 0 106.817c0-.368.022-.742.07-1.164-.048-.422-.07-.798-.07-1.166v-.117l.015-.115c.23-1.774 1.361-2.05 1.837-2.087.257-.02 1.569-.035 2.045 1.606L.44 104.777c.09.258.353.582.742.786l.702.09-.36.047c.164.046.345.07.535.063.827-.03 1.376-.614 1.52-1.037l-1.777-.24h1.8c0 .277.022.576.068.94l.03.228-.03.23a7.25 7.25 0 0 0-.068.933c0 4.011 3.264 7.275 7.275 7.275h97.809V14.394h-86.81v90.144h-3.6V10.793h94.011z"/></g></g></g></g><g><g><path fill="#5593a5" d="M90.814 84.172c0-2.84 2.31-5.15 5.149-5.15 2.84 0 5.15 2.31 5.15 5.15v5.313h-10.3zm13.9 0c0-4.825-3.926-8.75-8.75-8.75-4.826 0-8.751 3.925-8.751 8.75v8.914h17.5z"/></g></g><g><g><path fill="#5593a5" d="M67.634 74.687c0-2.84 2.31-5.15 5.15-5.15 2.838 0 5.148 2.31 5.148 5.15v14.798H67.634zm13.9 0c0-4.825-3.926-8.75-8.75-8.75-4.826 0-8.752 3.925-8.752 8.75v18.399h17.502z"/></g></g><g><g><path fill="#5593a5" d="M27.253 33.562h3.778L32.356 66.1h-6.854zm7.235-3.602H23.84l-2.138 39.741h14.405z"/></g></g><g><g><path fill="#5593a5" d="M42.73 21.297h3.736L47.828 66.1H40.93zm7.23-3.601H39.27L37.181 69.7h14.36z"/></g></g><g><g><path fill="#5593a5" d="M97.518 77.712h-3.6V44.843c0-5.59-4.548-10.137-10.138-10.137h-35.2v-3.601h35.2c7.576 0 13.738 6.163 13.738 13.738z"/></g></g><g><g><path fill="#5593a5" d="M74.46 67.86h-3.6v-9.28c0-5.95-4.841-10.791-10.791-10.791h-11.12v-3.602h11.12c7.936 0 14.392 6.457 14.392 14.393z"/></g></g><g><g><path fill="#5593a5" d="M29.424 75.529h3.267v2.94h-3.267zm6.868-3.601h-10.47V82.07h10.47z"/></g></g><g><g><path fill="#5593a5" d="M42.117 75.529h3.268v2.94h-3.268zm6.869-3.601h-10.47V82.07h10.47z"/></g></g><g><g><path fill="#5593a5" d="M21.927 69.865h31.599v36.3h-3.557v.08H21.927zm31.643 39.9h3.557V66.265H18.326v43.583H53.57z"/></g></g><g><g><path fill="#5593a5" d="M57.127 93.086h43.986v13.079H57.127zm47.587-3.601H53.526v20.28h51.188z"/></g></g><g><g><path fill="#5593a5" d="M29.424 86.522h3.267v2.94h-3.267zm6.868-3.601h-10.47v10.142h10.47z"/></g></g><g><g><path fill="#5593a5" d="M29.424 97.515h3.267v2.94h-3.267zm6.868-3.601h-10.47v10.142h10.47z"/></g></g><g><g><path fill="#5593a5" d="M16.116 101.14c.812.555 2.17 1.728 2.159 3.354-.077 1.806-2.32 3.801-5.47 4.393l.022-9.141c1.182.26 2.338.743 3.289 1.394zm-5.105 11.522c2.415-.016 4.95-.748 6.954-2.008 2.44-1.534 3.828-3.684 3.91-6.055v-.037c.034-2.458-1.29-4.729-3.727-6.395-2.032-1.39-4.617-2.206-7.092-2.239l-1.82-.024-.042 16.77z"/></g></g></g></g></svg>