<svg xmlns="http://www.w3.org/2000/svg" width="211" height="49" viewBox="0 0 211 49"><g><g><g><path fill="#fff" d="M33.95 2.153l-.488-.185c-.278.309-.572.493-.865.493-.488 0-1.335-.493-3.061-1.168C27.76.616 25.139 0 21.228 0 13.408 0 3.624 5.537.693 16.549c-2.932 11.013 3.903 16.55 11.724 16.55 7.282 0 12.712-3.323 13.69-3.323.342 0 .52.06.553.492l.701-.432L24.9 20.18l-.653.43c.016.308.146.554.048.923-.475 1.784-7.417 3.445-9.129 3.445-3.959 0-8.518-2.153-6.846-8.428 1.67-6.275 7.375-8.429 11.334-8.429 4.155 0 7.492 1.6 7.165 2.83-.115.431-.229.677-.344.924l.374.43 7.102-10.15"/></g><g><path fill="#fff" d="M50.206 25.714H38.623c-2.466 4.492-2.972 5.292-3.071 5.66-.099.37.032.617.717.617l-.198.738h-8.65l.196-.738c.734-.184 1.092-.43 1.647-1.415.816-1.415 16.284-28.484 16.382-28.854.115-.43-.39-.553-.813-.615L45.03.37h12.756l-.196.738c-.555.062-.93.186-1.094.8-.13.492.984 18.887 1.526 28.239.095 1.475.29 1.845.877 1.845l-.196.738h-9.63l.196-.738c.701-.06 1.027-.37 1.126-.739.064-.246-.205-4.736-.189-5.538zm-.802-19.562l-8.248 14.642h9.09l-.842-14.642z"/></g><g><path fill="#fff" d="M61.717 31.315l.585.552c.637-.552.85-.798 1.337-.798.538 0 3.224 2.03 7.915 2.03 6.16 0 11.456-1.725 13.766-10.398l5.455-20.486c.146-.554.409-.984 1.663-1.108l.195-.738H82.565l-.196.738c1.189.124 1.221.554 1.074 1.108L78.4 21.163c-.82 3.076-1.833 4.675-4.667 4.675-1.418 0-6.549-.737-5.762-3.69.08-.309.212-.616.343-.923l-.522-.246-6.074 10.336"/></g><g><path fill="#fff" d="M113.36 18.702c-1.26 4.737-4.015 6.646-7.927 6.646-3.91 0-5.65-1.909-4.389-6.646l4.389-16.487c.146-.554.41-.984 1.665-1.108l.197-.738h-10.07l-.197.738c1.19.124 1.222.554 1.074 1.108l-4.389 16.487c-2.883 10.828 2.18 14.397 9.658 14.397 7.479 0 14.44-3.57 17.323-14.397l4.388-16.487c.148-.554.41-.984 1.666-1.108l.194-.738h-10.069l-.195.738c1.189.124 1.22.554 1.074 1.108l-4.392 16.487"/></g><g><path fill="#fff" d="M124.87 30.882c-.146.556-.407.985-1.662 1.109l-.198.738h9.289l.194-.738c-1.188-.124-1.22-.553-1.073-1.11l5.144-19.316c8.07 18.148 9.08 18.95 8.867 19.75-.115.43-.424.676-1.304.676l-.197.738h9.288l.196-.738c-1.19-.124-1.222-.553-1.075-1.11l7.633-28.666c.148-.554.41-.984 1.663-1.108l.197-.738h-8.943l-.197.738c.618.062.929.37.731 1.108L149.05 18.64c-2.158-4.737-7.602-16.057-7.42-16.734.098-.37.439-.738 1.58-.8l.197-.738h-11.78l-.196.738c1.187.124 1.22.554 1.073 1.108l-7.633 28.667"/></g><g><g><g><path fill="#fff" d="M.172 46.766L.61 38.34h1.611l-.438 8.425z"/></g><g><path fill="#fff" d="M13.56 46.766l-2.233-4.257a21.147 21.147 0 0 1-.812-1.81c.013.725-.031 2.048-.084 3.058l-.156 3.009H8.713l.439-8.425h2.094l2.121 4.019c.35.649.65 1.348.925 1.984-.017-.849.036-2.346.09-3.382l.137-2.62h1.561l-.439 8.424z"/></g></g><g><g><path fill="#fff" d="M25.528 39.652c1.909 0 2.559 1.072 2.465 2.883-.104 1.997-1.291 2.895-2.865 2.895-.323 0-.656-.025-.877-.062l.295-5.68c.262-.024.61-.036.982-.036zm-.634 7.164c2.727 0 4.69-1.51 4.841-4.406.154-2.958-1.435-4.12-4.025-4.12-1.03 0-2.048.038-2.706.063l-.437 8.4c.705.026 1.46.063 2.327.063z"/></g><g><path fill="#fff" d="M39.02 46.903c-2.64 0-3.159-1.448-3.075-3.058l.286-5.504h1.612l-.282 5.405c-.055 1.06.253 1.81 1.641 1.81 1.24 0 1.788-.525 1.863-1.96l.273-5.255h1.6l-.27 5.154c-.118 2.297-1.44 3.408-3.647 3.408z"/></g><g><path fill="#fff" d="M50.871 46.903c-.744 0-1.371-.074-1.922-.225l.256-1.56a4.595 4.595 0 0 0 1.802.362c.756 0 1.417-.312 1.458-1.098.084-1.61-3.475-.874-3.33-3.645.078-1.498 1.272-2.534 3.292-2.534.46 0 1.038.063 1.504.163l-.223 1.423a4.51 4.51 0 0 0-1.425-.238c-.943 0-1.397.412-1.429 1.01-.079 1.511 3.533.95 3.394 3.621-.081 1.56-1.443 2.72-3.377 2.72z"/></g></g><g><g><path fill="#fff" d="M63.44 39.726l-.366 7.04h-1.612l.366-7.04H59.66l.072-1.385h5.95l-.072 1.385z"/></g><g><path fill="#fff" d="M73.747 39.613c1.016 0 1.491.4 1.449 1.211-.042.787-.662 1.286-1.63 1.286-.247 0-.47-.012-.58-.025l.127-2.433c.162-.026.398-.039.634-.039zm3.384 7.153l-1.799-2.833c-.183-.3-.414-.611-.622-.924 1.176-.2 2.115-1.098 2.18-2.347.09-1.722-1.066-2.371-2.914-2.371-.966 0-1.748.012-2.407.05l-.438 8.425h1.611l.182-3.483h.136l2.074 3.483z"/></g></g><g><g><path fill="#fff" d="M83.19 46.766l.438-8.425h1.611l-.438 8.425z"/></g><g><path fill="#fff" d="M91.73 46.766l.438-8.425h4.55l-.07 1.36h-2.94l-.107 2.072h2.789l-.069 1.324h-2.789l-.119 2.283h2.938l-.072 1.386z"/></g></g><g><g><path fill="#fff" d="M104.477 46.903c-.744 0-1.372-.074-1.923-.225l.255-1.56a4.6 4.6 0 0 0 1.803.362c.757 0 1.418-.312 1.459-1.098.083-1.61-3.475-.874-3.331-3.645.078-1.498 1.272-2.534 3.293-2.534.459 0 1.037.063 1.503.163l-.222 1.423a4.51 4.51 0 0 0-1.426-.238c-.942 0-1.397.412-1.428 1.01-.08 1.511 3.532.95 3.394 3.621-.082 1.56-1.444 2.72-3.377 2.72z"/></g></g></g><g><g><path fill="#fff" d="M.172 46.766L.61 38.34h1.611l-.438 8.425z"/></g><g><path fill="#fff" d="M13.56 46.766l-2.233-4.257a21.147 21.147 0 0 1-.812-1.81c.013.725-.031 2.048-.084 3.058l-.156 3.009H8.713l.439-8.425h2.094l2.121 4.019c.35.649.65 1.348.925 1.984-.017-.849.036-2.346.09-3.382l.137-2.62h1.561l-.439 8.424z"/></g></g><g><g><path fill="#fff" d="M25.53 39.652c1.908 0 2.559 1.072 2.464 2.883-.103 1.997-1.291 2.895-2.865 2.895-.322 0-.656-.025-.877-.062l.296-5.68c.261-.024.609-.036.981-.036zm4.207 2.758c.153-2.958-1.435-4.12-4.025-4.12-1.03 0-2.048.038-2.706.063l-.437 8.4c.705.026 1.459.063 2.327.063 2.727 0 4.69-1.51 4.84-4.406z"/></g><g><path fill="#fff" d="M39.022 46.903c-2.64 0-3.16-1.448-3.076-3.058l.287-5.504h1.611l-.28 5.405c-.056 1.06.252 1.81 1.64 1.81 1.24 0 1.787-.525 1.862-1.96l.274-5.255h1.6l-.27 5.154c-.119 2.297-1.441 3.408-3.648 3.408z"/></g></g><g><g><path fill="#fff" d="M50.87 46.903c-.744 0-1.371-.074-1.922-.225l.256-1.56a4.596 4.596 0 0 0 1.802.362c.756 0 1.417-.312 1.458-1.098.084-1.61-3.475-.874-3.33-3.645.078-1.498 1.272-2.534 3.292-2.534.46 0 1.038.063 1.504.163l-.223 1.423a4.51 4.51 0 0 0-1.425-.238c-.943 0-1.398.412-1.429 1.01-.079 1.511 3.533.95 3.394 3.621-.081 1.56-1.443 2.72-3.377 2.72z"/></g><g><path fill="#fff" d="M63.441 39.726l-.366 7.04h-1.612l.367-7.04h-2.17l.073-1.385h5.95l-.073 1.385z"/></g></g><g><g><path fill="#fff" d="M73.747 39.613c1.016 0 1.492.4 1.45 1.211-.042.787-.663 1.286-1.63 1.286-.247 0-.47-.012-.58-.025l.126-2.433c.163-.026.398-.039.634-.039zm3.384 7.153l-1.798-2.833c-.184-.3-.415-.611-.622-.924 1.176-.2 2.115-1.098 2.18-2.347.089-1.722-1.067-2.371-2.914-2.371-.967 0-1.748.012-2.407.05l-.439 8.425h1.612l.181-3.483h.136l2.075 3.483z"/></g><g><path fill="#fff" d="M83.192 46.766l.44-8.425h1.61l-.438 8.425z"/></g></g><g><g><path fill="#fff" d="M91.727 46.766l.439-8.425h4.55l-.072 1.36h-2.938l-.108 2.072h2.789l-.069 1.324H93.53l-.119 2.283h2.938l-.073 1.386z"/></g><g><path fill="#fff" d="M104.475 46.903c-.744 0-1.372-.074-1.922-.225l.255-1.56a4.595 4.595 0 0 0 1.803.362c.756 0 1.417-.312 1.458-1.098.084-1.61-3.475-.874-3.33-3.645.077-1.498 1.272-2.534 3.292-2.534.46 0 1.038.063 1.504.163l-.223 1.423a4.51 4.51 0 0 0-1.426-.238c-.942 0-1.397.412-1.428 1.01-.079 1.511 3.533.95 3.394 3.621-.081 1.56-1.443 2.72-3.377 2.72z"/></g></g><g><g><g><path fill="#fff" d="M113.701 45.668L111.88 49l-.667-.287 1.542-3.433z"/></g></g></g><g><g><path fill="#fff" d="M113.701 45.668L111.88 49l-.667-.287 1.542-3.433z"/></g></g><g><g><g><path fill="#fff" d="M126.225 46.766l.439-8.425h1.611l-.364 7.002h2.714l-.074 1.423z"/></g><g><path fill="#fff" d="M136.501 46.766l.439-8.425h1.611l-.364 7.002h2.714l-.074 1.423z"/></g></g><g><g><path fill="#fff" d="M149.932 46.865c-2.925 0-3.766-1.946-3.657-4.043.14-2.671 1.626-4.556 4.427-4.556a6.35 6.35 0 0 1 1.772.25l-.3 1.485a4.703 4.703 0 0 0-1.634-.288c-1.562 0-2.392 1.187-2.478 2.834-.095 1.822.608 2.846 2.294 2.846.508 0 1.16-.137 1.604-.35l.174 1.435a6.443 6.443 0 0 1-2.202.387z"/></g></g></g><g><g><path fill="#fff" d="M126.226 46.766l.439-8.425h1.611l-.364 7.002h2.714l-.074 1.423z"/></g><g><path fill="#fff" d="M136.502 46.766l.438-8.425h1.612l-.364 7.002h2.714l-.074 1.423z"/></g></g><g><g><path fill="#fff" d="M149.932 46.865c-2.925 0-3.766-1.946-3.657-4.043.14-2.671 1.626-4.556 4.427-4.556a6.35 6.35 0 0 1 1.772.25l-.3 1.485a4.703 4.703 0 0 0-1.634-.288c-1.562 0-2.392 1.187-2.478 2.834-.095 1.822.608 2.846 2.294 2.846.508 0 1.16-.137 1.604-.35l.174 1.435a6.443 6.443 0 0 1-2.202.387z"/></g></g><g><g><path fill="#fff" d="M178.25 23.813c0-9.39 7.589-17.03 16.915-17.03 1.74 0 3.418.266 4.999.76l1.758-7.537h-33.547l-11.582 46.89h34.187l1.465-6.275c-8.038-1.314-14.194-8.35-14.194-16.808z"/></g><g><path fill="#fff" d="M211 23.813c0-7.125-4.666-13.173-11.084-15.21l-7.224 30.96c.806.127 1.631.195 2.473.195 8.732 0 15.835-7.153 15.835-15.945z"/></g><g><path fill="#fff" d="M195.165 7.87c-8.732 0-15.835 7.152-15.835 15.943 0 7.945 5.801 14.55 13.362 15.75l7.224-30.96a15.671 15.671 0 0 0-4.751-.734z"/></g></g></g></g></svg>