<svg xmlns="http://www.w3.org/2000/svg" width="98" height="119" viewBox="0 0 98 119"><g><g><g><path fill="#5593a5" d="M18.634 30.013l21.88 27.868a12.043 12.043 0 0 1 2.559 7.405v20.378c0 .714.452 1.352 1.099 1.55a1.605 1.605 0 0 0 1.44-.236 1.6 1.6 0 0 0 .646-1.282V65.108a12.8 12.8 0 0 0-2.72-7.87L24.103 32.482c5.947 1.744 15.11 2.773 24.887 2.773 9.89 0 19.113-1.048 25.055-2.823L54.57 57.237a12.8 12.8 0 0 0-2.72 7.87v20.537c0 .842.632 1.561 1.438 1.638a1.6 1.6 0 0 0 1.226-.407c.332-.301.522-.73.522-1.179v-20.41c0-2.673.909-5.303 2.56-7.405l22.19-28.264c.573-.58.863-1.19.863-1.815 0-1.421-1.466-2.72-4.357-3.862a1.808 1.808 0 0 0-2.164.678l-.09.135a1.785 1.785 0 0 0-.21 1.538c.168.521.557.932 1.068 1.127 1.415.54 1.486.942 1.486 1.017 0 .487-1.661 1.544-7.888 2.422-5.28.744-12.302 1.154-19.774 1.154-7.473 0-14.496-.41-19.775-1.154-6.227-.878-7.888-1.935-7.888-2.422 0-.06.063-.604 2.261-1.282.93-.286 1.484-1.227 1.263-2.141a1.811 1.811 0 0 0-.903-1.172c-.45-.24-.98-.278-1.456-.104-3.245 1.19-4.891 2.558-4.891 4.066 0 .77.438 1.515 1.303 2.21z"/></g><g><path fill="#5593a5" d="M47.789 18.38l-.256-.699c-.245-1.296-.981-2.372-2.25-3.29-1.947-1.408-2.841-3.27-2.735-5.69.059-1.325.523-2.53 1.38-3.581 1.45-1.778 3.218-2.587 5.407-2.469 2.242.12 3.937 1.126 5.18 3.076.721 1.13 1.033 2.431.928 3.87a6.363 6.363 0 0 1-.86 2.77c-.5.87-1.208 1.602-2.164 2.241-1.029.69-1.682 1.685-1.94 2.958l-.45.814zm-4.061-1.772c.576.39.906.783 1.073 1.27.02.057.036.129.053.233l.105.64a2.065 2.065 0 0 0-.348 3.089c-.349.382-.54.872-.54 1.393 0 .523.193 1.016.546 1.399a2.05 2.05 0 0 0-.546 1.399 2.07 2.07 0 0 0 2.068 2.067h1.237a1.766 1.766 0 0 0 3.51 0h1.237a2.07 2.07 0 0 0 2.067-2.067 2.05 2.05 0 0 0-.546-1.4 2.05 2.05 0 0 0 .546-1.398c0-.52-.19-1.011-.54-1.393a2.067 2.067 0 0 0-.612-3.244l.086-.468c.106-.575.435-1.036 1.037-1.45 2.086-1.438 3.382-3.412 3.853-5.867.867-4.524-1.78-9.012-6.155-10.44-.432-.14-.901-.254-1.477-.357L50.301 0h-2.692l-.11.028c-.118.029-.235.057-.353.084-.469.111-.954.226-1.444.429-2.71 1.118-4.538 3.066-5.435 5.792-.788 2.395-.576 4.782.63 7.094a8.628 8.628 0 0 0 2.83 3.181z"/></g><g><path fill="#5593a5" d="M66.304 19.089l-.097-.738c.043-1.318-.441-2.53-1.48-3.7-1.593-1.8-2.06-3.811-1.429-6.15.346-1.281 1.062-2.356 2.127-3.195 1.803-1.42 3.705-1.822 5.815-1.231 2.162.606 3.597 1.957 4.386 4.13.457 1.26.478 2.598.062 3.979a6.361 6.361 0 0 1-1.444 2.517c-.678.739-1.528 1.3-2.6 1.716-1.154.448-2.008 1.277-2.538 2.463l-.618.696zm-3.578-2.615c.477.507.715.962.771 1.475.006.059.007.132 0 .238l-.036.648a2.066 2.066 0 0 0-1.013 2.938 2.051 2.051 0 0 0-.83 1.242 2.049 2.049 0 0 0 .228 1.484 2.05 2.05 0 0 0-.838 1.247c-.12.539-.023 1.092.273 1.559.296.466.756.789 1.295.91l1.207.269a1.766 1.766 0 0 0 3.426.764l1.207.27c.539.12 1.093.024 1.559-.273.466-.296.79-.755.91-1.295a2.048 2.048 0 0 0-.229-1.484c.428-.296.724-.735.838-1.246a2.052 2.052 0 0 0-.224-1.477 2.068 2.068 0 0 0 .11-3.3l.186-.438c.228-.538.65-.915 1.328-1.19 2.349-.948 4.044-2.592 5.038-4.885 1.832-4.227.227-9.183-3.732-11.53-.39-.231-.824-.445-1.364-.67l-.076-.032-2.627-.587-.114.003-.36.006c-.483.006-.982.013-1.506.103-2.887.501-5.097 2.005-6.566 4.47-1.291 2.165-1.604 4.54-.93 7.06a8.623 8.623 0 0 0 2.07 3.721z"/></g><g><path fill="#5593a5" d="M28.978 18.88c-.53-1.186-1.385-2.015-2.54-2.463-1.07-.416-1.92-.977-2.599-1.716a6.363 6.363 0 0 1-1.443-2.517c-.416-1.381-.395-2.72.062-3.978.79-2.174 2.224-3.525 4.386-4.131 2.11-.59 4.012-.189 5.815 1.23 1.065.84 1.781 1.915 2.127 3.196.631 2.339.164 4.35-1.43 6.15-1.037 1.17-1.522 2.38-1.479 3.699l-.1.74-2.181.486zm-3.788-.064c.678.274 1.1.651 1.328 1.19l.186.438a2.068 2.068 0 0 0-.721 2.058c.114.507.407.945.83 1.241a2.053 2.053 0 0 0-.223 1.477c.114.511.41.95.838 1.246a2.05 2.05 0 0 0-.228 1.484c.12.54.443 1 .91 1.295.465.297 1.02.393 1.558.273l1.207-.27a1.767 1.767 0 0 0 2.055 1.15 1.766 1.766 0 0 0 1.37-1.914l1.208-.27c.54-.12 1-.443 1.295-.91.296-.466.393-1.02.273-1.558a2.05 2.05 0 0 0-.838-1.247c.261-.45.342-.973.228-1.484a2.05 2.05 0 0 0-.83-1.242 2.065 2.065 0 0 0-1.013-2.938l-.037-.648a1.481 1.481 0 0 1 0-.238c.057-.513.295-.967.772-1.475a8.624 8.624 0 0 0 2.069-3.72c.674-2.52.36-4.896-.93-7.062-1.47-2.464-3.679-3.968-6.567-4.469-.523-.09-1.022-.097-1.504-.103a30.71 30.71 0 0 1-.361-.006l-.115-.003-2.626.587-.076.032c-.54.226-.973.439-1.364.67-3.96 2.347-5.564 7.303-3.732 11.53.994 2.294 2.69 3.937 5.038 4.886z"/></g><g><path fill="#5593a5" d="M47.797 107.162l-.264-.715c-.245-1.295-.981-2.372-2.25-3.288-1.947-1.409-2.841-3.27-2.735-5.69.059-1.326.523-2.531 1.38-3.582 1.45-1.778 3.219-2.584 5.407-2.469 2.242.12 3.937 1.127 5.18 3.076.721 1.13 1.033 2.431.928 3.87a6.365 6.365 0 0 1-.86 2.771c-.5.868-1.208 1.6-2.163 2.24-1.03.69-1.683 1.684-1.942 2.958l-.458.83zM51.86 89.14c-.431-.14-.9-.255-1.477-.357l-.081-.015h-2.692l-.11.028-.352.084c-.47.111-.955.226-1.445.429-2.71 1.118-4.538 3.067-5.435 5.792-.788 2.395-.576 4.782.63 7.094a8.629 8.629 0 0 0 2.83 3.181c.577.391.907.783 1.074 1.27.02.057.036.13.053.233l.108.658a2.05 2.05 0 0 0-.33 3.071c-.353.38-.546.872-.546 1.393 0 .524.196 1.018.552 1.399a2.035 2.035 0 0 0-.552 1.399c0 1.131.921 2.052 2.053 2.052h1.25a1.75 1.75 0 0 0 3.483 0h1.25c1.132 0 2.053-.92 2.053-2.052 0-.525-.195-1.018-.552-1.4.357-.38.552-.874.552-1.398 0-.521-.193-1.012-.545-1.393.352-.38.545-.87.545-1.392 0-.804-.465-1.499-1.14-1.836l.09-.484c.105-.575.434-1.035 1.036-1.45 2.086-1.438 3.382-3.412 3.853-5.867.867-4.523-1.78-9.011-6.155-10.44z"/></g><g><path fill="#5593a5" d="M89.068 70.22l-.223.909a11.197 11.197 0 0 1-1.014 2.645l-.444.824 2.484 4.893c-.103.112-.208.222-.314.331l-5.015-2.226-.8.485c-.806.49-1.678.878-2.59 1.152l-.896.27-1.704 5.217c-.152.006-.304.01-.455.012l-1.973-5.124-.908-.222a11.211 11.211 0 0 1-2.646-1.015l-.824-.443-4.893 2.484a16.728 16.728 0 0 1-.33-.314l2.225-5.016-.485-.8a11.219 11.219 0 0 1-1.152-2.59l-.27-.895-5.217-1.704a15.84 15.84 0 0 1-.012-.455l5.124-1.974.222-.908c.226-.925.567-1.815 1.015-2.646l.443-.823-2.483-4.894c.103-.111.207-.222.314-.33l5.015 2.226.8-.486c.805-.49 1.677-.877 2.59-1.151l.895-.27 1.704-5.217c.153-.006.304-.01.455-.012l1.974 5.124.908.222c.924.226 1.815.567 2.646 1.014l.823.444 4.894-2.484c.111.103.222.208.33.314l-2.226 5.016.486.799c.49.806.877 1.678 1.151 2.59l.27.896 5.217 1.704c.007.152.01.304.012.455zm8.584-3.95l-.125-1.149-5.712-1.866a14.82 14.82 0 0 0-.746-1.676l2.437-5.49-.768-.86a20.013 20.013 0 0 0-2.41-2.289l-.9-.722-5.356 2.719a14.779 14.779 0 0 0-1.712-.657l-2.16-5.607-1.152-.066a19.94 19.94 0 0 0-3.319.085l-1.148.125-1.866 5.713c-.575.214-1.135.462-1.677.745l-5.489-2.437-.862.768a20.087 20.087 0 0 0-2.287 2.409l-.723.9 2.719 5.357a14.788 14.788 0 0 0-.657 1.712l-5.607 2.16-.066 1.152a20.12 20.12 0 0 0 .085 3.319l.126 1.149 5.712 1.865c.214.575.463 1.135.745 1.677l-2.436 5.49.767.86a20.058 20.058 0 0 0 2.41 2.288l.9.723 5.356-2.719c.556.254 1.128.473 1.713.657l2.159 5.607 1.153.066a20.133 20.133 0 0 0 3.319-.085l1.148-.126 1.866-5.712a14.787 14.787 0 0 0 1.676-.745l5.49 2.437.861-.768a20.007 20.007 0 0 0 2.288-2.41l.723-.9-2.72-5.356c.254-.556.474-1.128.657-1.712l5.608-2.16.065-1.153a20.144 20.144 0 0 0-.085-3.319z"/></g><g><path fill="#5593a5" d="M77.902 73.182a4.745 4.745 0 0 1-4.74-4.74 4.745 4.745 0 0 1 4.74-4.74 4.745 4.745 0 0 1 4.74 4.74 4.745 4.745 0 0 1-4.74 4.74zm0-13.058c-4.587 0-8.318 3.732-8.318 8.318 0 4.587 3.731 8.318 8.318 8.318 4.586 0 8.318-3.731 8.318-8.318 0-4.586-3.732-8.318-8.318-8.318z"/></g><g><path fill="#5593a5" d="M31.035 70.22l-.222.909a11.193 11.193 0 0 1-1.015 2.645l-.443.824 2.483 4.893c-.103.112-.208.222-.314.331l-5.015-2.226-.8.485c-.806.49-1.678.878-2.59 1.152l-.895.27-1.705 5.217c-.152.006-.304.01-.455.012l-1.973-5.124-.908-.222a11.213 11.213 0 0 1-2.646-1.015l-.824-.443-4.893 2.484a15.163 15.163 0 0 1-.33-.314l2.226-5.016-.486-.8a11.2 11.2 0 0 1-1.152-2.59l-.269-.895-5.218-1.704c-.006-.152-.01-.304-.012-.455l5.124-1.974.222-.908A11.19 11.19 0 0 1 9.94 63.11l.443-.823L7.9 57.393c.103-.111.208-.222.314-.33l5.015 2.226.8-.486c.806-.49 1.677-.877 2.59-1.151l.895-.27 1.705-5.217c.152-.006.303-.01.455-.012l1.973 5.124.909.222c.924.225 1.814.567 2.645 1.014l.824.444 4.893-2.484c.112.103.222.208.33.314l-2.226 5.016.486.8c.49.805.877 1.677 1.152 2.59l.269.895 5.218 1.704c.006.152.01.304.011.455zm8.46-5.099l-5.713-1.866a14.791 14.791 0 0 0-.746-1.676l2.437-5.49-.768-.86a20.032 20.032 0 0 0-2.409-2.289l-.9-.722-5.357 2.719a14.77 14.77 0 0 0-1.712-.657l-2.16-5.607-1.152-.066a19.943 19.943 0 0 0-3.319.085l-1.148.125-1.866 5.713c-.575.214-1.135.462-1.676.745l-5.49-2.437-.861.768a20.015 20.015 0 0 0-2.288 2.41l-.723.9 2.72 5.356a14.799 14.799 0 0 0-.658 1.712L.1 66.144l-.066 1.152a20.196 20.196 0 0 0 .085 3.319l.126 1.149 5.712 1.865c.214.575.463 1.135.745 1.677l-2.436 5.49.768.86a20.046 20.046 0 0 0 2.409 2.288l.9.723 5.357-2.719c.555.254 1.127.473 1.712.657l2.16 5.607 1.152.066a20.136 20.136 0 0 0 3.319-.085l1.148-.126 1.866-5.712a14.815 14.815 0 0 0 1.676-.745l5.49 2.437.861-.768a20.023 20.023 0 0 0 2.288-2.41l.723-.9-2.72-5.356c.254-.556.474-1.128.657-1.712l5.608-2.16.065-1.153a20.19 20.19 0 0 0-.085-3.319z"/></g><g><path fill="#5593a5" d="M19.869 73.182a4.745 4.745 0 0 1-4.74-4.74 4.745 4.745 0 0 1 4.74-4.74 4.745 4.745 0 0 1 4.74 4.74 4.745 4.745 0 0 1-4.74 4.74zm0-13.058c-4.587 0-8.318 3.732-8.318 8.318 0 4.587 3.731 8.318 8.318 8.318s8.318-3.731 8.318-8.318c0-4.586-3.731-8.318-8.318-8.318z"/></g></g></g></svg>