<svg xmlns="http://www.w3.org/2000/svg" width="117" height="118" viewBox="0 0 117 118"><g><g><path fill="#5593a5" d="M112.715 78.157c.104.178.113.311.008.496a9252.337 9252.337 0 0 0-9.279 16.238c-.11.192-.232.256-.446.26-1.322.022-2.644.006-3.966.023-2.187.03-4.374.025-6.561.05-1.468.017-2.936.003-4.404.003v.002c-1.919 0-3.837-.002-5.756.004-.185 0-.288-.06-.372-.226l-1.042-2.051-.011.005a27.42 27.42 0 0 0-.606-1.257c-.12-.23-.116-.238.145-.223 1.827.11 3.425-.455 4.789-1.661a6.435 6.435 0 0 0 2.13-3.781c.008-.05.023-.099.035-.148l.055-1.22c-.082-.859-.269-1.693-.639-2.476-.975-2.064-2.605-3.306-4.844-3.672-2.835-.463-5.009.664-6.651 2.944-.013.017-.025.036-.036.054-.134.2-.151.2-.263-.009-.25-.469-.454-.939-.652-1.41l.014-.013-.112-.22c-.231-.552-.464-1.104-.76-1.653-.194-.36-.388-.788-.58-1.207a.543.543 0 0 1 .045-.107c.578-1.05 1.143-2.108 1.718-3.16.39-.714.809-1.413 1.18-2.137.493-.96.295-1.969-.508-2.59-.786-.609-1.693-.843-2.682-.75-.585.054-1.164.177-1.756.147-1.067-.055-2.46-1.102-1.969-2.703.362-1.183 1.165-1.923 2.343-2.248 1.065-.294 1.883.059 2.439 1.01.229.39.375.818.566 1.226.41.875 1 1.577 1.893 1.997.986.464 2.041.188 2.65-.715.182-.27.343-.557.498-.844.792-1.47 1.548-2.958 2.386-4.403 1.45-.019 2.902 0 4.353-.012.18 0 .197.044.11.196-.599 1.043-.92 2.163-.888 3.37.078 2.906 1.894 5.692 5.319 6.378.248.05.5.08.751.119h1.09c.487-.079.978-.145 1.443-.32 2.56-.955 4.054-2.79 4.444-5.489.21-1.45-.123-2.815-.86-4.08-.144-.249-.14-.255.146-.255 1.431 0 2.863-.005 4.295 0 .382.003.74-.034 1.08-.105a961.89 961.89 0 0 0 2.151 3.7c2.52 4.31 5.041 8.618 7.567 12.923zm-34.38 18.007c-.638 1.066-1.276 2.132-1.898 3.208-2.81 4.863-5.617 9.728-8.418 14.597-.116.201-.241.285-.478.28-1.046-.018-2.092-.015-3.138-.027-1.38-.015-2.76.002-4.141.013-2.121.017-4.243.03-6.365-.013-1.001-.02-2.004.036-2.782.022-.886 0-1.548-.01-2.209.006-.221.005-.34-.076-.445-.263-.408-.73-.83-1.451-1.248-2.174-2.76-4.757-5.519-9.514-8.282-14.268.208-.415.417-.829.627-1.243.69-1.3 1.39-2.617 1.911-3.96.15-.389.356-.748.398-1.168.141-1.383-.758-2.517-2.138-2.7-.651-.086-1.29.02-1.924.146-1.411.28-2.794-.31-3.483-1.5-1.057-1.824.099-4.215 2.182-4.471 1.261-.155 2.273.32 3.016 1.352.268.374.448.798.646 1.21.285.59.645 1.121 1.193 1.502 1.209.842 2.865.389 3.489-.85a275.795 275.795 0 0 1 2.696-5.234l-.012-.015.29-.571h4.643c.29 0 .294.004.15.248a6.503 6.503 0 0 0-.936 3.295c-.03 3.258 2.19 5.925 5.285 6.53.27.053.545.08.817.12h.916c.51-.065 1.022-.132 1.513-.297 2.546-.854 3.99-2.657 4.468-5.257.288-1.564-.036-3.031-.856-4.39-.146-.243-.137-.258.145-.257 1.085.002 4.41.015 6.268.012.702 1.308 1.407 2.613 2.08 3.936.161.318.318.637.472.958.871 1.806 3.074 2.054 4.33.487.303-.379.495-.82.7-1.253.265-.563.592-1.072 1.064-1.496 1.623-1.459 4.485-.726 4.978 1.758.343 1.723-1.08 3.366-2.644 3.52-.671.067-1.33-.051-1.99-.15-1.104-.165-2.101.06-2.82.975-.615.781-.643 1.667-.252 2.554.419.951.937 1.854 1.417 2.776l.057.119-.012.003c.07.135.138.27.206.406.155.347.3.696.464 1.041h-.017l.059.09c.006.01.008.017.014.025.014.03.027.059.042.088.03.092.015.175-.047.28zm-48.18-.935v-.002c-1.468 0-2.936.014-4.404-.003-2.187-.025-4.374-.02-6.56-.05-1.323-.017-2.645 0-3.967-.023-.214-.004-.337-.068-.446-.26a9293.535 9293.535 0 0 0-9.279-16.238c-.105-.185-.096-.318.008-.496 2.526-4.306 5.047-8.614 7.567-12.923.7-1.196 1.395-2.395 2.09-3.595 1.23-.003 2.461 0 3.692 0 .286 0 .29.006.145.254-.736 1.266-1.068 2.63-.859 4.081.39 2.7 1.884 4.534 4.444 5.49.465.174.955.24 1.442.319h1.09c.25-.04.503-.07.752-.119 3.424-.686 5.24-3.472 5.318-6.378.033-1.207-.289-2.327-.887-3.37-.087-.152-.07-.197.11-.196 1.896.016 3.793-.023 5.688.042.173.006.345.002.517.016l-.05.055c.814 1.413 1.555 2.866 2.328 4.302.155.287.316.573.499.844.608.903 1.663 1.18 2.65.715.892-.42 1.482-1.122 1.892-1.997.192-.408.337-.836.566-1.227.556-.95 1.374-1.303 2.44-1.01 1.178.326 1.98 1.066 2.342 2.249.49 1.601-.902 2.648-1.969 2.703-.592.03-1.17-.093-1.755-.148-.99-.092-1.897.142-2.683.75-.803.622-1 1.63-.508 2.591.372.724.79 1.423 1.18 2.137.575 1.052 1.14 2.11 1.718 3.16.084.152.08.267.001.421-.33.645-.657 1.291-.985 1.937l.007.012c-.503.962-1 1.928-1.502 2.892-.115.221-.117.22-.251.016-1.22-1.867-2.962-2.89-5.165-3.066-3.35-.268-6.353 2.166-6.876 5.45-.038.237-.06.475-.09.713l.048 1.22c.13.748.325 1.477.694 2.145 1.145 2.067 2.897 3.239 5.24 3.528.296.037.594.042.891.038.283-.003.255-.01.165.253-.17.495-.346.943-.531 1.369h-.031l-.598 1.177c-.084.166-.187.226-.372.226-1.918-.006-3.837-.004-5.756-.004zM3.716 40.212c-.224-.39-.224-.726.002-1.117 3.295-5.683 6.58-11.37 9.867-17.057.504-.872.294-.786 1.36-.786 6.578-.001 13.155.001 19.732-.007.364 0 .639.062.835.408.811 1.436 1.64 2.861 2.462 4.292.344.598.662 1.213 1.064 1.775.942 1.315 2.663 1.45 3.806.309.367-.366.616-.807.817-1.277.18-.421.36-.843.606-1.231.586-.926 1.463-1.393 2.523-1.463 1.914-.127 3.488 1.782 3.058 3.657-.354 1.544-1.927 2.607-3.503 2.395-.646-.087-1.292-.18-1.951-.124-1.009.088-1.929.841-2.196 1.82-.206.753-.025 1.43.359 2.083 1.423 2.417 2.836 4.84 4.262 7.255.105.178.095.302-.009.472l-.734 1.213v-.001c-.47.813-1.056 1.511-1.526 2.325-.14.244-.133.238-.285.003-1.556-2.416-3.725-3.659-6.632-3.283-2.317.3-4.004 1.564-5.03 3.68-.34.698-.523 1.443-.63 2.209v1.177c.066.43.136.86.264 1.278.797 2.606 3.339 4.713 6.367 4.67.09-.002.215-.05.264.037.047.086-.046.178-.105.247-.298.349-.565.726-.816 1.115l-.005-.001-.088.146c-.15.24-.298.48-.44.723l.003.002-.518.858c-.101.168-.21.254-.415.238a13.378 13.378 0 0 0-.98-.032c-1.373-.006-2.747-.012-4.12-.008-1.003.003-2.007.002-3.006-.068-1.218-.085-2.308.65-2.58 1.838-.19.829.025 1.586.48 2.28.266.407.568.79.839 1.194.44.657.647 1.371.52 2.17-.272 1.716-1.465 2.588-2.959 2.644-2.022.075-3.543-2.008-2.929-3.953.2-.63.595-1.144.984-1.66.309-.41.582-.836.712-1.338.266-1.027.09-1.936-.752-2.643-.503-.423-1.114-.548-1.752-.552-1.062-.005-2.123-.001-3.184-.001-1.068 0-2.136-.01-3.205.005-.419.005-.697-.157-.9-.52-.562-1.01-1.139-2.011-1.712-3.015-2.74-4.794-5.477-9.59-8.224-14.38zM47.213 5.984c.419-.723.84-1.445 1.248-2.174.105-.188.224-.268.445-.263.661.015 1.323.006 2.209.006.778-.014 1.78.041 2.782.021 2.122-.041 4.244-.03 6.365-.012 1.38.01 2.761.028 4.141.013 1.046-.013 2.092-.01 3.138-.028.237-.004.362.08.478.281 2.801 4.869 5.607 9.734 8.418 14.597.388.671.783 1.337 1.18 2.003l-1.977 3.438c-.158.274-.157.274-.314.008-1.134-1.924-2.839-3.03-5.027-3.28-2.726-.313-4.814.819-6.29 3.1-.528.817-.823 1.726-.926 2.696-.004.043-.017.085-.025.127v1.134c.075.562.165 1.123.382 1.65.993 2.412 2.768 3.853 5.348 4.283.307.051.62.064.933.058.259-.006.264.008.13.234-.937 1.598-1.876 3.195-2.815 4.793-1.705.026-4.312.048-5.767.054-1.283.006-2.154.888-2.243 2.172-.068.972.26 1.81.8 2.587.24.346.515.667.738 1.026.353.568.485 1.172.337 1.835-.122.545-.426.94-.907 1.216-.966.555-1.955.544-3.008.256-1.493-.408-1.727-1.962-1.305-2.91.197-.443.486-.825.785-1.201.63-.795.991-1.686.98-2.711-.013-1.224-.862-2.14-2.084-2.238-.732-.06-1.465-.02-2.199-.005-1.002.02-2.005.006-3.008.007-.122 0-.438-.004-.665-.006l-2.864-4.875c-.133-.226-.128-.24.13-.234.314.006.627-.007.934-.058 2.58-.43 4.355-1.871 5.348-4.283.217-.527.307-1.088.382-1.65v-1.134c-.009-.042-.021-.084-.025-.127-.103-.97-.398-1.88-.926-2.696-1.476-2.281-3.564-3.413-6.29-3.1-2.188.25-3.893 1.356-5.027 3.28-.157.266-.156.266-.314-.008L38.845 20.4c2.792-4.804 5.58-9.61 8.368-14.416zm18.139 60.78a4.9 4.9 0 0 0 .867 2.547c1.237 1.78 2.948 2.657 5.122 2.615.31-.006.318.007.173.276-.783 1.448-1.553 2.903-2.38 4.326-2.324-.002-5.611 0-7.024-.002-.44 0-.87.06-1.278.229-1.273.527-1.833 1.852-1.358 3.198.15.422.378.8.652 1.151.304.391.57.806.813 1.238.84 1.497-.026 4.09-2.324 4.36-1.562.183-3.1-.827-3.366-2.5a3.08 3.08 0 0 1 .406-2.138c.245-.405.539-.775.816-1.157.42-.578.68-1.21.668-1.941a2.428 2.428 0 0 0-2.07-2.393 3.765 3.765 0 0 0-.608-.047c-1.024.002-2.05 0-3.074 0v.001h-2.299c-.828-1.423-1.598-2.877-2.38-4.325-.145-.269-.137-.282.173-.276 2.174.042 3.885-.835 5.122-2.615.528-.76.812-1.618.867-2.546.004-.058.018-.115.027-.172v-.436c-.053-.594-.13-1.184-.344-1.745-.987-2.595-2.851-4.148-5.603-4.493-2.416-.303-4.245.712-5.49 2.795-.062.102-.089.282-.208.28-.118-.004-.143-.183-.2-.288-.447-.837-.9-1.67-1.371-2.493l1.246-2.063c.382-.585.833-1.13 1.184-1.734.291-.503.599-.997.848-1.523.719-1.511-.03-3.162-1.611-3.547-.55-.135-1.107-.12-1.667-.046-.598.079-1.202.13-1.799-.002-1.668-.368-3.302-2.43-1.864-4.669.592-.922 1.507-1.333 2.562-1.318 1.153.016 2.016.622 2.627 1.587.198.315.335.66.477 1.003.185.444.399.872.701 1.25 1.115 1.396 3.202 1.246 4.096-.296.39-.673.875-1.305 1.263-1.979.273-.473.555-.9.828-1.372l-.002-.003 1.957-3.235c.74 0 1.48-.003 2.22-.004.064 0 .13.003.195 0 .176-.005.182.063.094.193-.372.552-.668 1.142-.834 1.789-.524 2.05-.108 3.89 1.295 5.478.67.757 1.57 1.155 2.518 1.454.632.2 1.283.302 1.94.372h.655c.366-.05.735-.077 1.096-.16 1.344-.308 2.53-.905 3.462-1.939.735-.815 1.102-1.803 1.252-2.874.21-1.494-.172-2.851-.988-4.101-.041-.063-.134-.126-.085-.208.046-.075.147-.036.224-.038.775-.018 1.55-.038 2.324-.055l2.013 3.328-.002.003c.273.473.554.899.827 1.372.389.674.874 1.306 1.264 1.979.893 1.542 2.981 1.692 4.096.296.302-.378.516-.806.7-1.25.143-.343.28-.688.478-1.003.61-.965 1.474-1.571 2.626-1.587 1.056-.015 1.97.396 2.563 1.318 1.438 2.24-.196 4.3-1.864 4.669-.597.131-1.2.081-1.8.002-.559-.073-1.116-.089-1.666.046-1.58.385-2.33 2.036-1.611 3.547.25.526.557 1.02.848 1.523.35.605.802 1.149 1.184 1.734.718 1.188 1.436 2.375 2.153 3.564-.18.33-.357.661-.534.992-.056.105-.082.285-.2.287-.119.003-.146-.177-.207-.279-1.245-2.083-3.075-3.098-5.49-2.795-2.752.345-4.617 1.898-5.604 4.493-.213.56-.291 1.151-.344 1.745v.436c.01.057.023.114.027.172zm36.18-45.512c1.067 0 .857-.086 1.36.786 3.288 5.686 6.573 11.374 9.867 17.057.227.39.227.726.002 1.117-2.747 4.79-5.484 9.587-8.224 14.381-.573 1.004-1.15 2.005-1.712 3.014-.202.364-.48.526-.9.52-1.068-.014-2.136-.004-3.205-.004-1.06 0-2.121-.004-3.183.001-.639.004-1.249.13-1.752.552-.841.707-1.019 1.616-.753 2.643.13.502.404.928.713 1.337.39.517.784 1.032.983 1.661.615 1.945-.906 4.028-2.928 3.953-1.494-.056-2.687-.928-2.96-2.644-.126-.799.08-1.513.52-2.17.272-.404.574-.787.84-1.194.455-.694.669-1.451.48-2.28-.272-1.188-1.363-1.923-2.58-1.838-.999.07-2.003.071-3.006.068-1.373-.004-2.747.002-4.12.008a13.38 13.38 0 0 0-.98.032c-.205.016-.314-.07-.415-.238l-.518-.858.002-.002a23.836 23.836 0 0 0-.44-.723l-.088-.146h-.004a10.322 10.322 0 0 0-.817-1.114c-.059-.069-.151-.16-.104-.247.049-.088.174-.039.264-.037 3.028.043 5.57-2.064 6.367-4.67.128-.418.198-.847.265-1.278v-1.177c-.108-.766-.292-1.51-.63-2.21-1.027-2.115-2.714-3.38-5.031-3.68-2.907-.375-5.077.868-6.633 3.284-.15.235-.143.24-.284-.003-.47-.814-1.056-1.512-1.526-2.325v.001l-.735-1.213c-.103-.17-.113-.294-.008-.472 1.425-2.416 2.839-4.838 4.262-7.255.384-.653.565-1.33.359-2.084-.267-.978-1.187-1.731-2.196-1.819-.66-.057-1.306.037-1.95.124-1.578.212-3.15-.851-3.504-2.395-.43-1.875 1.144-3.784 3.058-3.657 1.06.07 1.937.537 2.523 1.463.245.388.425.81.606 1.23.201.47.45.912.817 1.278 1.143 1.14 2.864 1.006 3.805-.309.403-.562.721-1.177 1.065-1.775.821-1.43 1.65-2.856 2.462-4.292.196-.346.47-.408.835-.408 6.577.008 13.154.006 19.731.007zM114.1 44.946c.48-.839.95-1.683 1.445-2.513.454-.762.842-1.543.934-2.44v-.698c-.093-.923-.526-1.707-.98-2.491-3.185-5.492-6.36-10.99-9.537-16.486-.145-.252-.28-.51-.436-.754-.642-.998-1.556-1.584-2.723-1.78-.05-.007-.099-.02-.148-.032H80.937a4.855 4.855 0 0 0-.71.186c-3.162-5.388-6.266-10.81-9.375-16.23-.527-.92-1.23-1.525-2.3-1.66H64.89c-.078.008-.157.025-.235.025H60.85c-.078 0-.157-.017-.236-.026H47.882c-.163.032-.33.055-.49.098-.714.189-1.229.633-1.594 1.264-2.033 3.515-4.065 7.03-6.101 10.544-1.155 1.993-2.312 3.985-3.47 5.977a4.885 4.885 0 0 0-.686-.178H13.824c-.05.011-.098.025-.148.033-1.167.195-2.081.781-2.723 1.779-.157.244-.291.502-.436.754C7.339 25.814 4.165 31.312.98 36.804c-.454.784-.888 1.568-.98 2.49v.698c.092.898.48 1.68.934 2.441.495.83.966 1.674 1.445 2.513 2.737 4.797 5.472 9.594 8.212 14.39.306.535.668.977 1.083 1.327-1.065 1.832-2.135 3.66-3.205 5.49-2.102 3.591-4.202 7.184-6.305 10.776-.193.329-.332.676-.42 1.046v.872c.099.43.293.817.51 1.197 3.153 5.511 6.302 11.024 9.45 16.537.16.277.305.563.471.835.469.765 1.159 1.149 2.052 1.204 1.169.072 2.338.03 3.507.041 1.62.017 3.24.028 4.86.044.07 0 .142.018.213.028H35.57c1.377 2.37 2.754 4.74 4.128 7.11 2.036 3.514 4.068 7.03 6.1 10.545.366.63.88 1.075 1.595 1.264.16.043.327.066.49.098h12.733c.08-.01.158-.026.236-.026h3.803c.078 0 .157.017.235.026h3.663c1.07-.136 1.773-.74 2.3-1.66 3.19-5.563 6.375-11.129 9.624-16.657.138-.235.279-.467.418-.7h14.52c.072-.01.144-.027.215-.028 1.62-.016 3.24-.027 4.859-.044 1.169-.012 2.338.03 3.507-.041.893-.055 1.583-.44 2.052-1.204.167-.272.312-.558.47-.835 3.15-5.513 6.299-11.026 9.451-16.537.218-.38.411-.767.51-1.197v-.872a3.761 3.761 0 0 0-.42-1.046c-2.103-3.592-4.203-7.185-6.305-10.777-1.31-2.24-2.62-4.481-3.92-6.728.017-.03.036-.058.054-.089 2.74-4.795 5.475-9.592 8.212-14.389z"/></g></g></svg>