<svg xmlns="http://www.w3.org/2000/svg" width="260" height="60" viewBox="0 0 260 60"><defs><linearGradient id="28lra" x1="-139" x2="-139" y1="-27" y2="-27" gradientUnits="userSpaceOnUse"><stop offset="0" stop-color="#fff"/><stop offset="1" stop-color="#06143f"/></linearGradient><linearGradient id="28lrb" x1="-139" x2="-139" y1="-27" y2="-27" gradientUnits="userSpaceOnUse"><stop offset="0" stop-color="#fff"/><stop offset="1" stop-color="#06143f"/></linearGradient><linearGradient id="28lrd" x1="201.29" x2="249.18" y1="23.43" y2="35.23" gradientUnits="userSpaceOnUse"><stop offset="0" stop-color="#fff"/><stop offset="1" stop-color="#06143f"/></linearGradient><radialGradient id="28lre" cx="-139" cy="-27" r="0" gradientUnits="userSpaceOnUse"><stop offset="0" stop-color="#fff"/><stop offset="1" stop-color="#013822"/></radialGradient><radialGradient id="28lrf" cx="-139" cy="-27" r="0" gradientUnits="userSpaceOnUse"><stop offset="0" stop-color="#fff"/><stop offset="1" stop-color="#013822"/></radialGradient><clipPath id="28lrc"><path d="M207.152.008l-14.18 56.358h41.856L248.225.008h-41.073"/></clipPath></defs><g><g><g><g><path fill="#013822" d="M42.567 2.588l-.598-.222c-.34.37-.7.592-1.06.592-.596 0-1.633-.592-3.746-1.405C34.989.74 31.779 0 26.99 0 17.416 0 5.438 6.655 1.849 19.891c-3.59 13.238 4.778 19.892 14.354 19.892 8.916 0 15.564-3.994 16.761-3.994.419 0 .638.073.677.593l.86-.52-3.016-11.608-.799.517c.02.37.178.666.058 1.11-.58 2.144-9.08 4.14-11.177 4.14-4.846 0-10.428-2.588-8.381-10.13 2.044-7.542 9.03-10.13 13.877-10.13 5.087 0 9.172 1.922 8.772 3.401-.14.518-.28.813-.422 1.11l.46.517 8.694-12.2"/></g><g><path fill="#013822" d="M62.47 30.908H48.288c-3.019 5.398-3.639 6.36-3.76 6.803-.12.444.04.74.878.74l-.242.888h-10.59l.24-.888c.898-.22 1.336-.516 2.016-1.701 1-1.7 19.937-34.236 20.057-34.68.14-.517-.476-.665-.996-.739l.242-.887H71.75l-.24.887c-.68.074-1.138.222-1.34.961-.16.592 1.205 22.701 1.869 33.941.116 1.774.354 2.218 1.073 2.218l-.24.888h-11.79l.24-.888c.859-.072 1.258-.444 1.379-.888.078-.296-.25-5.692-.232-6.655zm-11.08-5.915h11.13L61.488 7.394z"/></g><g><path fill="#013822" d="M76.564 37.638l.716.664c.78-.664 1.04-.96 1.637-.96.658 0 3.947 2.44 9.691 2.44 7.54 0 14.026-2.071 16.854-12.496l6.68-24.624c.178-.665.5-1.183 2.035-1.331l.24-.887h-12.328l-.24.887c1.456.148 1.495.666 1.316 1.331l-6.177 22.775c-1.004 3.698-2.244 5.619-5.714 5.619-1.736 0-8.017-.885-7.054-4.436.098-.37.26-.74.42-1.109l-.639-.295-7.437 12.422"/></g><g><path fill="#013822" d="M139.794 22.479c-1.544 5.694-4.917 7.988-9.706 7.988-4.787 0-6.917-2.294-5.373-7.988l5.373-19.817c.179-.665.502-1.183 2.039-1.331l.24-.887h-12.329l-.24.887c1.457.148 1.494.666 1.315 1.331l-5.374 19.817c-3.531 13.014 2.667 17.304 11.824 17.304s17.68-4.29 21.21-17.304l5.372-19.817c.181-.665.502-1.183 2.04-1.331l.237-.887h-12.327l-.239.887c1.455.148 1.493.666 1.314 1.331l-5.376 19.817"/></g><g><path fill="#013822" d="M153.885 37.118c-.179.668-.497 1.184-2.035 1.333l-.241.888h11.372l.238-.888c-1.455-.149-1.494-.665-1.314-1.333l6.298-23.217c9.88 21.813 11.118 22.776 10.856 23.737-.14.517-.519.813-1.596.813l-.241.888h11.372l.239-.888c-1.455-.149-1.495-.665-1.315-1.333l9.345-34.456c.182-.665.503-1.183 2.036-1.331l.242-.887h-10.95l-.242.887c.757.074 1.138.443.896 1.331l-5.356 19.743c-2.642-5.694-9.308-19.299-9.084-20.113.12-.443.537-.887 1.935-.961l.24-.887h-14.422l-.24.887c1.453.148 1.494.666 1.313 1.331l-9.346 34.456"/></g><g><g><g><path fill="none" stroke="#06143f" stroke-miterlimit="20" stroke-width=".16" d="M1.21 56.21v0l.538-10.126v0H3.72v0L3.184 56.21v0z"/></g><g><path fill="none" stroke="#06143f" stroke-miterlimit="20" stroke-width=".16" d="M17.601 56.21v0l-2.733-5.115c-.4-.766-.724-1.516-.994-2.176.016.87-.038 2.46-.103 3.676l-.191 3.615v0h-1.912v0l.537-10.126v0h2.564v0l2.597 4.83c.43.78.795 1.62 1.133 2.385-.022-1.02.044-2.82.11-4.066l.167-3.15v0h1.912v0l-.537 10.127v0z"/></g></g><g><g><path fill="none" stroke="#06143f" stroke-miterlimit="20" stroke-width=".16" d="M32.255 47.659c2.338 0 3.134 1.29 3.018 3.466-.127 2.4-1.58 3.48-3.508 3.48-.395 0-.803-.03-1.073-.075l.361-6.826c.32-.03.746-.045 1.202-.045zm-.776 8.611c3.34 0 5.743-1.815 5.927-5.296.189-3.555-1.756-4.951-4.928-4.951-1.26 0-2.507.046-3.312.075l-.535 10.097c.862.03 1.786.075 2.848.075z"/></g><g><path fill="none" stroke="#06143f" stroke-miterlimit="20" stroke-width=".16" d="M48.775 56.375c-3.232 0-3.868-1.74-3.766-3.676l.351-6.615v0h1.974v0l-.345 6.496c-.068 1.275.309 2.175 2.009 2.175 1.517 0 2.189-.63 2.28-2.355l.335-6.316v0h1.958v0l-.329 6.195c-.146 2.76-1.765 4.096-4.467 4.096z"/></g><g><path fill="none" stroke="#06143f" stroke-miterlimit="20" stroke-width=".16" d="M63.285 56.375c-.911 0-1.68-.09-2.353-.27l.312-1.875c.653.27 1.388.435 2.207.435.926 0 1.735-.375 1.786-1.32.102-1.935-4.255-1.05-4.079-4.381.096-1.8 1.558-3.046 4.032-3.046.562 0 1.27.076 1.841.196l-.273 1.71a5.615 5.615 0 0 0-1.745-.286c-1.154 0-1.71.495-1.75 1.216-.096 1.815 4.326 1.14 4.156 4.35-.1 1.876-1.767 3.271-4.134 3.271z"/></g></g><g><g><path fill="none" stroke="#06143f" stroke-miterlimit="20" stroke-width=".16" d="M78.673 47.749v0l-.448 8.461v0H76.25v0l.449-8.461v0h-2.656v0l.089-1.665v0h7.284v0l-.088 1.665v0z"/></g><g><path fill="none" stroke="#06143f" stroke-miterlimit="20" stroke-width=".16" d="M91.292 47.614c1.244 0 1.826.48 1.775 1.455-.051.946-.81 1.544-1.995 1.544-.303 0-.576-.014-.711-.028l.155-2.926c.199-.03.488-.045.776-.045zm4.143 8.596l-2.202-3.405c-.224-.36-.507-.735-.76-1.11 1.439-.24 2.588-1.321 2.668-2.821.11-2.07-1.306-2.851-3.567-2.851-1.184 0-2.14.016-2.948.06L88.09 56.21h1.974l.222-4.185h.166l2.54 4.185z"/></g></g><g><g><path fill="none" stroke="#06143f" stroke-miterlimit="20" stroke-width=".16" d="M102.853 56.21v0l.538-10.126v0h1.972v0l-.537 10.126v0z"/></g><g><path fill="none" stroke="#06143f" stroke-miterlimit="20" stroke-width=".16" d="M113.31 56.21v0l.537-10.126v0h5.57v0l-.086 1.634v0h-3.598v0l-.132 2.491v0h3.415v0l-.085 1.591v0h-3.414v0l-.146 2.745v0h3.598v0l-.089 1.665v0z"/></g></g><g><g><path fill="none" stroke="#06143f" stroke-miterlimit="20" stroke-width=".16" d="M128.917 56.375c-.911 0-1.68-.09-2.353-.27l.312-1.875c.653.27 1.388.435 2.207.435.926 0 1.735-.375 1.785-1.32.104-1.935-4.254-1.05-4.077-4.381.095-1.8 1.557-3.046 4.03-3.046.563 0 1.272.076 1.842.196l-.273 1.71a5.614 5.614 0 0 0-1.745-.286c-1.154 0-1.71.495-1.75 1.216-.095 1.815 4.326 1.14 4.157 4.35-.1 1.876-1.768 3.271-4.135 3.271z"/></g></g></g><g><g><path fill="#06143f" d="M1.21 56.21l.538-10.126H3.72L3.184 56.21z"/></g><g><path fill="#06143f" d="M17.601 56.21l-2.733-5.115c-.4-.766-.724-1.516-.994-2.176.016.87-.038 2.46-.103 3.676l-.191 3.615h-1.912l.537-10.126h2.564l2.597 4.83c.43.78.795 1.62 1.133 2.385-.022-1.02.044-2.82.11-4.066l.167-3.15h1.912l-.537 10.127z"/></g></g><g><g><path fill="#06143f" d="M32.257 47.659c2.338 0 3.134 1.29 3.018 3.466-.127 2.4-1.581 3.48-3.508 3.48-.395 0-.803-.03-1.074-.075l.362-6.826c.32-.03.746-.045 1.202-.045zm-.776 8.611c3.34 0 5.743-1.815 5.927-5.296.189-3.555-1.756-4.951-4.928-4.951-1.26 0-2.507.046-3.312.075l-.535 10.097c.862.03 1.785.075 2.848.075z"/></g><g><path fill="#06143f" d="M48.777 56.375c-3.232 0-3.868-1.74-3.766-3.676l.351-6.615h1.973l-.344 6.496c-.068 1.275.309 2.175 2.009 2.175 1.517 0 2.188-.63 2.28-2.355l.335-6.316h1.958l-.329 6.195c-.146 2.76-1.765 4.096-4.467 4.096z"/></g></g><g><g><path fill="#06143f" d="M63.284 56.375c-.911 0-1.68-.09-2.354-.27l.313-1.875c.653.27 1.387.435 2.207.435.926 0 1.735-.375 1.785-1.32.103-1.935-4.254-1.05-4.078-4.381.096-1.8 1.558-3.046 4.031-3.046.563 0 1.272.076 1.842.196l-.273 1.71a5.615 5.615 0 0 0-1.746-.286c-1.153 0-1.71.495-1.748 1.216-.097 1.815 4.325 1.14 4.155 4.35-.1 1.876-1.767 3.271-4.134 3.271z"/></g><g><path fill="#06143f" d="M78.675 47.749l-.449 8.461h-1.973l.449-8.461h-2.656l.089-1.665h7.284l-.088 1.665z"/></g></g><g><g><path fill="#06143f" d="M91.293 47.614c1.244 0 1.826.48 1.775 1.455-.051.946-.811 1.544-1.995 1.544-.303 0-.576-.014-.712-.028l.156-2.926c.199-.03.487-.045.776-.045zm4.143 8.596l-2.202-3.405c-.225-.36-.507-.735-.761-1.11 1.44-.24 2.59-1.321 2.668-2.821.11-2.07-1.305-2.851-3.567-2.851-1.184 0-2.14.016-2.947.06L88.09 56.21h1.973l.222-4.185h.167l2.54 4.185z"/></g><g><path fill="#06143f" d="M102.857 56.21l.538-10.126h1.973l-.538 10.126z"/></g></g><g><g><path fill="#06143f" d="M113.307 56.21l.537-10.126h5.57l-.087 1.634h-3.597l-.132 2.491h3.414l-.084 1.591h-3.414l-.145 2.745h3.596l-.088 1.665z"/></g><g><path fill="#06143f" d="M128.914 56.375c-.91 0-1.679-.09-2.353-.27l.313-1.875c.654.27 1.388.435 2.207.435.926 0 1.736-.375 1.786-1.32.102-1.935-4.255-1.05-4.079-4.381.096-1.8 1.558-3.046 4.032-3.046.562 0 1.27.076 1.841.196l-.273 1.71a5.612 5.612 0 0 0-1.745-.286c-1.154 0-1.71.495-1.75 1.216-.096 1.815 4.326 1.14 4.156 4.35-.1 1.876-1.767 3.271-4.135 3.271z"/></g></g><g><g><g><path fill="none" stroke="#06143f" stroke-miterlimit="20" stroke-width=".16" d="M140.211 54.89v0l-2.231 4.006v0l-.816-.346v0l1.888-4.125v0z"/></g></g></g><g><g><path fill="#06143f" d="M140.211 54.89l-2.231 4.006-.816-.346 1.888-4.125z"/></g></g><g><g><g><path fill="none" stroke="#06143f" stroke-miterlimit="20" stroke-width=".16" d="M155.545 56.21v0l.537-10.126v0h1.973v0l-.446 8.417v0h3.323v0l-.09 1.71v0z"/></g><g><path fill="none" stroke="#06143f" stroke-miterlimit="20" stroke-width=".16" d="M168.126 56.21v0l.537-10.126v0h1.973v0l-.446 8.417v0h3.323v0l-.09 1.71v0z"/></g></g><g><g><path fill="none" stroke="#06143f" stroke-miterlimit="20" stroke-width=".16" d="M184.57 56.33c-3.581 0-4.61-2.34-4.477-4.861.17-3.21 1.99-5.475 5.42-5.475a7.91 7.91 0 0 1 2.17.3l-.368 1.785a5.824 5.824 0 0 0-2-.346c-1.913 0-2.929 1.426-3.034 3.406-.116 2.19.745 3.42 2.809 3.42.621 0 1.42-.164 1.964-.42l.212 1.726a8.037 8.037 0 0 1-2.696.464z"/></g></g></g><g><g><path fill="#06143f" d="M155.546 56.21l.537-10.126h1.973l-.446 8.417h3.323l-.09 1.71z"/></g><g><path fill="#06143f" d="M168.127 56.21l.537-10.126h1.973l-.446 8.417h3.324l-.09 1.71z"/></g></g><g><g><path fill="#06143f" d="M184.57 56.33c-3.581 0-4.61-2.34-4.477-4.861.17-3.21 1.99-5.475 5.42-5.475a7.91 7.91 0 0 1 2.17.3l-.368 1.785a5.824 5.824 0 0 0-2-.346c-1.913 0-2.929 1.426-3.034 3.406-.116 2.19.745 3.42 2.809 3.42.621 0 1.42-.164 1.964-.42l.212 1.726a8.037 8.037 0 0 1-2.696.464z"/></g></g><g><g><path fill="url(#28lra)" d="M207.152.008l-14.18 56.358h41.856L248.225.008h-41.073"/></g><g><g><path d="M207.152.008l-14.18 56.358h41.856L248.225.008h-41.073"/></g><g clip-path="url(#28lrc)"><g><path fill="url(#28lrd)" d="M192.971 56.366V.008h55.254v56.358z"/></g></g></g></g><g><path fill="#fff" d="M239.951 48.44c11.073 0 20.05-8.873 20.05-19.818 0-10.944-8.977-19.817-20.05-19.817-11.071 0-20.048 8.873-20.048 19.817 0 10.945 8.977 19.817 20.048 19.817"/></g><g><g><path fill="#fff" d="M239.951 46.796c10.154 0 18.386-8.136 18.386-18.174 0-10.037-8.232-18.173-18.386-18.173-10.152 0-18.385 8.136-18.385 18.173 0 10.038 8.233 18.174 18.385 18.174"/></g><g><g><path fill="#fff" stroke="#fff" d="M239.951 46.796c10.154 0 18.386-8.136 18.386-18.174 0-10.037-8.232-18.173-18.386-18.173-10.152 0-18.385 8.136-18.385 18.173 0 10.038 8.233 18.174 18.385 18.174"/></g></g></g></g></g></g></svg>