<svg xmlns="http://www.w3.org/2000/svg" width="92" height="117" viewBox="0 0 92 117"><g><g><g><path fill="#5593a5" d="M88.385 113.421h-9.224V93.252c5.605 3.062 9.224 9.013 9.224 15.52zm-12.746 0h-5.87V90.265l5.36 1.386c.166.043.335.09.51.142zm-9.392 0H26.331V89.354l4.346-1.092c.83 6.046 5.064 11.019 10.701 12.92l.084.029a16.08 16.08 0 0 0 1.961.513c.102.02.205.037.307.055.142.025.283.05.426.07.124.018.25.033.375.048s.25.031.376.044c.156.015.314.025.472.036.098.006.196.016.295.02a15.854 15.854 0 0 0 1.565 0c.099-.004.196-.014.295-.02.157-.01.315-.021.472-.036.125-.012.249-.029.373-.044.126-.015.252-.03.377-.048.142-.02.282-.045.423-.07.103-.017.206-.035.308-.054.157-.03.312-.064.466-.099l.243-.056a16.573 16.573 0 0 0 1.247-.356l.082-.028c5.626-1.893 9.857-6.845 10.705-12.871l4.017 1.039zm-43.438 0h-5.87V91.716l5.87-1.476zm-9.392 0H3.522v-4.544a17.625 17.625 0 0 1 9.895-15.868zM30.34 76.436a18.523 18.523 0 0 1-5.91-12.343l-.78-13.71c6.091 1.828 13.892 2.83 22.136 2.83 8.48 0 16.485-1.062 22.647-2.99l-.787 13.87a18.523 18.523 0 0 1-5.911 12.343L59.69 78.33l-1.138 1.054A18.375 18.375 0 0 1 43.28 84.08a18.352 18.352 0 0 1-9.757-4.697l-.003-.003-2.995-2.782v.007zM19.817 36.62l.995-.491-.014-1.109-.001-.042c.01-8.954 3.99-17.226 10.565-22.327v4.587a1.761 1.761 0 1 0 3.523 0V6.84c0-.047.037-.084.083-.084H37.4v19.203a1.761 1.761 0 1 0 3.523 0V3.57H51.32v.813a1.749 1.749 0 0 0 0 1.226v20.351a1.761 1.761 0 0 0 3.523 0V6.756h2.152c.046 0 .083.037.083.084v10.398a1.761 1.761 0 1 0 3.523 0v-4.411c6.44 5.117 10.332 13.32 10.342 22.156l-.004.084-.04 1.127 1.006.508c2.693 1.36 4.237 2.885 4.237 4.184 0 .054-.003.108-.008.163-.003.03-.008.059-.012.089l-.01.07a1.882 1.882 0 0 1-.028.13l-.006.026c-.408 1.544-2.726 3.26-6.377 4.684l-.788.308C63.66 48.253 55.74 49.69 45.786 49.69c-9.475 0-17.106-1.302-22.348-3.063v-.001l-1.08-.402c-4.139-1.54-6.76-3.507-6.92-5.177a1.78 1.78 0 0 1-.008-.161c0-1.333 1.6-2.887 4.387-4.266zM34.05 86.158l-.004-.715v-1.195c.071.047.144.09.215.135a24.607 24.607 0 0 0 .854.517c.071.041.141.084.213.124.268.15.539.294.812.433.055.028.11.053.165.08.223.11.446.217.672.32l.277.122c.2.087.4.171.602.252a22.099 22.099 0 0 0 1.06.397c.027.009.053.02.079.028.29.098.583.189.877.275l.268.075a21.912 21.912 0 0 0 1.627.386c.076.016.151.032.227.046.303.057.607.107.913.15.069.01.138.018.208.027a21.369 21.369 0 0 0 1.696.16c.096.005.19.012.286.016.313.013.626.022.94.022.322 0 .643-.009.963-.023.102-.004.203-.012.305-.018a21.616 21.616 0 0 0 1.97-.2c.212-.032.424-.068.635-.105.102-.019.204-.035.306-.055.283-.054.563-.114.843-.18l.083-.018c.309-.073.614-.155.919-.241l.264-.08c.215-.064.43-.13.642-.201l.32-.11a22.957 22.957 0 0 0 1.492-.585c.096-.042.193-.083.289-.126.24-.11.48-.223.716-.34l.138-.067c.282-.142.56-.292.836-.446.076-.043.15-.088.225-.131.199-.115.397-.232.592-.353.097-.06.193-.122.29-.184a21.647 21.647 0 0 0 .81-.545c.064-.045.13-.087.192-.133v1.771l-.004.715c-.04 6.803-5.605 12.337-12.406 12.337S34.09 92.96 34.05 86.158zm45.111 3.182v-.044l-1.153-.423h-.002l-2.367-.868v.14l-5.87-1.519-.733-.19-2.789-.72-3.857-.998V80.63l1.739-1.611a22.034 22.034 0 0 0 7.032-14.695l.875-15.417c5.445-2.34 7.201-5.003 7.555-7.143l.005-.033a5.178 5.178 0 0 0 .058-.524l.005-.097c.004-.076.006-.151.006-.225 0-3.091-2.648-5.35-5.213-6.813-.296-10.52-5.52-20.159-13.851-25.583V6.84a3.61 3.61 0 0 0-3.606-3.606h-2.152v-.447c0-1.51-1.229-2.74-2.74-2.74H40.14a2.743 2.743 0 0 0-2.74 2.74v.447H34.97a3.61 3.61 0 0 0-3.607 3.606v1.505c-8.438 5.38-13.742 15.032-14.071 25.624-4.42 2.455-5.383 5.088-5.383 6.917 0 .074.002.15.005.227l.006.109.009.118c.004.052.01.104.016.156l.008.069c.008.066.018.132.03.198l.002.02c.371 2.202 2.235 4.955 8.067 7.339l.862 15.182.002.021a22.034 22.034 0 0 0 7.031 14.695l2.578 2.388v3.26l-4.193 1.054-9.392 2.362v-.11l-2.306.752-.005.002-1.21.394v.046A21.138 21.138 0 0 0 0 108.878v8.066h91.907v-8.173c0-8.436-5.074-16.09-12.746-19.431z"/></g><g><path fill="#5593a5" d="M22.64 42.1c4.114 3.253 13.08 5.274 23.398 5.274 10.643 0 20.002-2.216 23.842-5.647a1.761 1.761 0 0 0-2.346-2.627c-3.655 3.265-13.705 4.752-21.496 4.752-10.71 0-18.372-2.268-21.215-4.515A1.76 1.76 0 1 0 22.64 42.1z"/></g></g></g></svg>