<svg xmlns="http://www.w3.org/2000/svg" width="123" height="118" viewBox="0 0 123 118"><g><g><g><g><path fill="#5593a5" d="M72.679 32.667a1.82 1.82 0 1 0 2.582 2.567l18.464-18.575 5.085-.05a1.82 1.82 0 0 0 1.803-1.838 1.811 1.811 0 0 0-1.839-1.802l-1.394.013.717-.721 4.942-.049a1.82 1.82 0 0 0-.018-3.64h-.018l-1.251.012.249-.25 5.135-.05a1.82 1.82 0 0 0-.017-3.641h-.019l-1.445.014 1-1.006a1.82 1.82 0 1 0-2.582-2.566l-1.636 1.645v-.863a1.82 1.82 0 1 0-3.64 0v4.526l-.345.346V5.88a1.82 1.82 0 0 0-3.64 0v4.522l-.42.422v-.883a1.82 1.82 0 0 0-3.641 0v4.546z"/></g><g><path fill="#5593a5" d="M73.99 61.597c15.095 0 27.377-12.282 27.377-27.377 0-5.356-1.55-10.546-4.483-15.01a1.82 1.82 0 0 0-3.043 2 23.623 23.623 0 0 1 3.885 13.01c0 13.088-10.648 23.736-23.736 23.736-13.089 0-23.737-10.648-23.737-23.736 0-13.089 10.648-23.737 23.737-23.737 4.528 0 8.933 1.285 12.741 3.716a1.82 1.82 0 0 0 1.959-3.069 27.268 27.268 0 0 0-14.7-4.287c-15.096 0-27.377 12.28-27.377 27.377 0 15.095 12.28 27.377 27.377 27.377z"/></g><g><path fill="#5593a5" d="M85.018 17.839a1.82 1.82 0 0 0-.72-2.472 21.493 21.493 0 0 0-10.308-2.64c-11.851 0-21.493 9.642-21.493 21.493 0 11.85 9.642 21.492 21.493 21.492 11.85 0 21.492-9.641 21.492-21.492 0-3.723-.975-7.398-2.82-10.628a1.82 1.82 0 0 0-3.161 1.806 17.815 17.815 0 0 1 2.34 8.822c0 9.843-8.008 17.851-17.851 17.851-9.844 0-17.852-8.008-17.852-17.851 0-9.844 8.008-17.852 17.852-17.852 2.985 0 5.944.758 8.557 2.191a1.82 1.82 0 0 0 2.471-.72z"/></g><g><path fill="#5593a5" d="M80.963 21.809a1.82 1.82 0 0 0-1.003-2.371 15.818 15.818 0 0 0-5.97-1.162c-8.792 0-15.944 7.152-15.944 15.944 0 8.791 7.152 15.944 15.944 15.944 8.79 0 15.943-7.153 15.943-15.944 0-2.193-.439-4.318-1.304-6.318a1.82 1.82 0 1 0-3.341 1.446 12.196 12.196 0 0 1 1.005 4.872c0 6.784-5.52 12.303-12.303 12.303-6.784 0-12.304-5.52-12.304-12.303 0-6.784 5.52-12.303 12.304-12.303 1.587 0 3.136.3 4.602.895a1.82 1.82 0 0 0 2.37-1.003z"/></g><g><path fill="#5593a5" d="M73.99 27.381c.206 0 .423.01.645.032a1.82 1.82 0 1 0 .345-3.624c-.336-.032-.669-.049-.99-.049-5.779 0-10.48 4.702-10.48 10.48 0 5.778 4.701 10.479 10.48 10.479 5.778 0 10.479-4.701 10.479-10.48 0-.471-.033-.952-.1-1.43a1.82 1.82 0 0 0-3.606.496 6.846 6.846 0 0 1-6.774 7.773 6.846 6.846 0 0 1-6.838-6.838 6.846 6.846 0 0 1 6.838-6.839z"/></g><g><path fill="#5593a5" d="M65.363 107.99c-2.365 1.026-7.532-.249-13.515-1.724-5.81-1.433-13.042-3.217-20.63-3.606a58.604 58.604 0 0 0-4.315-.065c-3.429.08-7.299 1.466-11.762 4.215V79.3c12.01-5.912 18.135-6.953 21.174-6.763 6.687.415 10.978 1.94 15.52 3.554 3.25 1.155 6.608 2.348 11.057 3.272 2.314.48 4.25.369 6.93.215 2.081-.12 4.672-.267 8.327-.178 3.38.082 4.192 2.07 4.28 3.723.103 1.974-.291 3.693-1.03 4.486-.288.31-.603.451-1.02.459-12.305.229-26.564-.109-28.32-.667a1.82 1.82 0 0 0-1.436 3.345c1.946.859 13.101 1.02 21.2 1.02 4.798 0 8.524-.056 8.623-.058a4.965 4.965 0 0 0 3.617-1.618c1.171-1.258 1.86-3.157 1.997-5.451.061-.038.122-.078.18-.124 1.514-.813 14.259-5.188 24.902-8 2.242-.591 4.082-.041 5.625 1.683a9.539 9.539 0 0 1 1.304 1.908c-5.482 3.444-27.563 16.988-52.708 27.884zM11.5 114.047H3.64V75.52h7.86zm110.596-33.79c-.03-.097-.768-2.37-2.523-4.38-2.448-2.806-5.772-3.83-9.361-2.881-4.851 1.281-10.928 3.104-16.67 5.002-4.2 1.387-6.535 2.24-7.868 2.794-.986-3.029-3.72-4.94-7.437-5.031-3.804-.093-6.476.06-8.623.183-2.492.142-4.138.236-5.982-.146-4.205-.873-7.445-2.024-10.577-3.137-4.791-1.703-9.317-3.31-16.514-3.757-4.758-.296-11.95 1.84-21.4 6.352v-1.557a1.82 1.82 0 0 0-1.82-1.82H1.82A1.82 1.82 0 0 0 0 73.699v42.168a1.82 1.82 0 0 0 1.82 1.82h11.5a1.82 1.82 0 0 0 1.821-1.82v-4.722c4.74-3.228 8.621-4.835 11.846-4.91 1.302-.03 2.663-.01 4.046.06 7.239.372 13.989 2.037 19.944 3.505 4.787 1.18 8.875 2.19 12.096 2.19 1.42 0 2.67-.196 3.738-.659 29.192-12.65 54.29-28.833 54.54-28.995a1.82 1.82 0 0 0 .745-2.08z"/></g></g></g></g></svg>