<svg xmlns="http://www.w3.org/2000/svg" width="118" height="118" viewBox="0 0 118 118"><g><g><g><g><path fill="#5593a5" d="M64.224 3.86c.672.143 1.358.222 2.02.299.405.046.822.095 1.226.156A55.213 55.213 0 0 1 95.43 17.29a55.158 55.158 0 0 1 16.684 25.903c.265.89.52 1.827.59 2.651-.014 1.377-.924 2.635-2.171 2.998-.8.233-1.44-.015-1.854-.714-.161-.273-.292-.57-.43-.885l-.106-.24a16.647 16.647 0 0 0-5.554-6.811c-1.056-.758-2.189-1.15-3.28-1.15-.357 0-.71.042-1.054.127-1.413.351-2.624 1.414-3.41 2.993-.116.232-.221.469-.323.698-.162.365-.315.71-.504 1.03-1.191 2.016-2.982 2.997-5.472 2.997h-.098c-2.067-.021-3.615-1.05-4.731-3.147-.283-.532-.549-1.09-.806-1.63-.2-.42-.408-.856-.624-1.28-1.301-2.555-2.928-5.512-5.136-8.075-3.823-4.437-8.831-7.29-12.767-9.282-1.197-.605-2.567-.667-4.074-.184a12021.57 12021.57 0 0 0-15.04 4.829c-.91.292-1.93.71-2.589 1.589-.568.756-1.093 1.142-1.606 1.179-.553.038-1.206-.322-1.993-1.105a28.95 28.95 0 0 0-.19-.188c-.132-.13-.264-.258-.39-.392-.83-.883-1.09-1.86-.792-2.984.407-1.538.897-3.318 1.57-4.994 1.144-2.847 2.863-4.527 5.255-5.137.869-.221 1.736-.478 2.576-.726.792-.234 1.61-.476 2.42-.685 4.574-1.181 8.014-3.832 10.225-7.88.24-.44.513-.937.84-1.347 1.112-1.394 2.23-1.882 3.629-1.587zM19.768 19.702c.515-.56 1.079-.84 1.672-.84.473 0 .965.178 1.465.537.65.465 1.056 1.17 1.278 2.22.577 2.72.171 4.93-1.276 6.957-2.047 2.867-4.055 5.831-5.997 8.698-.633.933-1.266 1.867-1.901 2.8-1.286 1.887-2.684 3.36-4.276 4.506-1.288.927-1.9 2.273-1.769 3.892.06.742.283 1.469.704 2.288.323.63.406 1.155.248 1.561-.161.411-.588.746-1.268.996-.57.209-1.216.308-2.032.311h-.031c-1.112 0-1.874-.232-2.265-.691-.3-.353-.396-.875-.285-1.553.583-3.537 1.334-6.738 2.296-9.784 2.393-7.574 6.663-14.532 13.437-21.898zm8.105 72.42c.611-.675 1.361-1.168 2.156-1.69l.322-.211c2.283-1.513 2.838-3.054 2.05-5.687-.104-.345-.243-.8-.402-1.259-.64-1.848-.628-3.683.037-5.61.525-1.515.48-2.874-.127-3.929-.619-1.075-1.808-1.812-3.44-2.13a23.965 23.965 0 0 1-8.025-3.125c-2.073-1.28-4.038-2.888-6.008-4.917-1.41-1.454-3.015-2.183-4.793-2.183-.771 0-1.575.137-2.409.412l-.173.058c-.483.16-.94.313-1.41.333-.574.023-.968-.1-1.273-.4-.545-.538-.76-1.405-.579-2.32.182-.913.736-1.66 1.447-1.948.478-.194 1.003-.217 1.558-.241l.205-.01.434-.018c1.143-.049 2.325-.099 3.469-.535 2.359-.898 3.423-2.968 2.776-5.402-.077-.293-.17-.58-.26-.858a21.534 21.534 0 0 1-.181-.575c-.5-1.69-.115-2.856 1.286-3.898.562-.417 1.203-.94 1.699-1.658a1613.41 1613.41 0 0 1 2.63-3.79c2.373-3.413 4.826-6.943 7.166-10.466 2.585-3.894 2.688-7.897.305-11.897a7.462 7.462 0 0 1-.61-1.35c-.321-.913-.13-1.7.584-2.403.318-.313.7-.616 1.24-.985C35.06 8.304 43.169 5.185 51.65 4.161c1.428-.172 3.12-.302 4.84.045.108.021.177.04.221.054a.916.916 0 0 1-.03.08c-1.113 2.6-2.3 4.534-4.481 5.517l-.128.057c-2.101.947-4.274 1.927-6.566 2.27-4.43.662-7.582 3.16-9.369 7.425-.866 2.068-1.443 4.245-2.002 6.352l-.07.267c-.198.745-.14 1.524.178 2.381.749 2.023 1.935 3.673 3.526 4.905 2.214 1.712 4.511 1.579 6.47-.377 1.206-1.204 2.654-2.007 4.428-2.454 2.806-.708 4.919-1.42 6.85-2.308 5.076-2.338 9.77-1.688 13.953 1.931 5.543 4.798 8.878 9.192 10.813 14.25 1.245 3.254 3.877 5.36 7.221 5.777 3.519.438 7.13-1.038 8.987-3.674.33-.468.626-.961.912-1.438.202-.337.41-.685.626-1.015.398-.609.863-.966 1.382-1.06.523-.095 1.091.077 1.688.513.252.184.486.396.735.62l.077.07c1.567 1.413 2.55 3.297 3.419 4.96 1.602 3.07 2.979 3.748 6.403 3.16l.085-.014c.802-.122 1.361-.046 1.708.232.331.265.517.753.567 1.49.07 1.027.052 2.087.035 3.113-.007.468-.015.937-.015 1.406v.03c.14 2.22.05 4.611-.285 7.522-1.091 9.505-4.289 17.926-9.504 25.03-5.837 7.95-13.604 14.048-23.745 18.64-9.038 4.094-18.472 5.526-28.038 4.256-7.138-.948-14.254-3.461-22.397-7.91-2.329-1.273-3.871-3.509-4.343-6.295-.49-2.886.305-5.893 2.072-7.847zM6.04 65.962c.186-.08.37-.163.555-.246.444-.198.863-.385 1.299-.541 1.244-.447 2.403-.28 3.541.508 1.155.8 2.324 1.798 3.68 3.14 3.256 3.219 6.788 5.046 10.8 5.584 1.126.151 1.924.58 2.308 1.243.39.672.364 1.597-.074 2.674-.584 1.436-.611 2.82-.082 4.23.08.213.16.426.242.638.16.415.324.844.471 1.266.666 1.907.283 2.76-1.573 3.512-2.388.967-3.844 2.784-4.327 5.4-.195 1.057-.3 2.135-.402 3.177-.114 1.168-.232 2.375-.477 3.533-.012.055-.02.114-.027.173a1.37 1.37 0 0 0-.06-.06c-8.426-7.938-13.808-16.747-16.453-26.93l-.059-.226c-.384-1.48-.782-3.008-.861-3.908-.1-2.05.527-2.75 1.499-3.168zM113.369 36.27c-2.995-7.016-7.28-13.339-12.733-18.795-5.46-5.463-11.793-9.756-18.822-12.76A57.59 57.59 0 0 0 58.928.048 58.152 58.152 0 0 0 35.753 4.89C28.69 7.96 22.35 12.327 16.908 17.87 11.5 23.38 7.278 29.748 4.362 36.794 1.344 44.08-.12 51.737.008 59.55c.255 15.594 6.391 30.189 17.279 41.094 11.052 11.07 25.957 17.198 41.97 17.254h.017c15.53 0 30.225-6.147 41.378-17.309 11.156-11.165 17.324-25.904 17.366-41.5.022-7.865-1.542-15.542-4.65-22.818z"/></g><g><path fill="#5593a5" d="M75.707 79.645l.033.333c.08 2.514-.784 3.908-2.977 4.808-2.44 1.002-3.665 2.846-3.748 5.638-.018.63-.048 1.36-.164 2.063-.288 1.733-1.316 2.805-3.143 3.276-1.804.466-3.214.007-4.31-1.403a7.879 7.879 0 0 1-.929-1.58c-.53-1.171-1.055-2.37-1.564-3.528a364.781 364.781 0 0 0-1.37-3.1c-.504-1.12-.61-2.303-.322-3.614.17-.773.436-1.534.699-2.242 1.101-2.965.5-5.458-1.787-7.41-1.263-1.077-2.107-2.417-2.58-4.097-.62-2.198-1.949-4.092-3.95-5.628-1.276-.978-2.693-1.688-4.034-2.31-3.995-1.849-6.27-5.676-5.797-9.75.597-5.128 4.732-9.011 10.055-9.441.26-.021.514-.032.761-.032 1.864 0 3.343.605 4.612 1.873 1.554 1.554 3.483 1.917 5.73 1.08 4.053-1.512 7.38-.348 9.62 3.363l1.082 1.79c1.567 2.593 3.188 5.274 4.756 7.924 1.16 1.96 2.592 3.146 4.505 3.735.67.206 1.113.579 1.28 1.076.18.536.027 1.183-.432 1.82-.558.776-1.216 1.453-1.918 2.177-2.475 2.55-3.9 5.554-4.234 8.927-.15 1.52.003 3.035.126 4.252zM42.131 62.748l.218.132c2.041 1.235 4.151 2.512 5.866 4.228 1.538 1.539 2.614 3.293 3.198 5.215.272.895.764 1.609 1.504 2.183 1.637 1.269 2.158 2.891 1.595 4.96l-.014.051c-.017.062-.033.125-.054.185-1.445 4.163-1.366 4.599-.202 7.297.208.483.444 1.032.713 1.705a87.747 87.747 0 0 0 2.963 6.656c1.317 2.642 3.638 4.115 6.372 4.115.463 0 .938-.042 1.421-.128 2.255-.401 4.727-1.174 5.962-3.87.511-1.115.623-2.27.665-3.254.105-2.502 1.26-4.22 3.53-5.254 2.582-1.174 3.539-2.85 3.199-5.602-.727-5.886 1.03-10.789 5.373-14.988.888-.86 1.428-2.012 1.604-3.426.22-1.766-.648-3.279-2.264-3.947-2.33-.964-4.176-2.643-5.647-5.132a721.389 721.389 0 0 0-5.087-8.442c-2.52-4.134-7.866-6.104-12.435-4.58-1.756.584-3.051.321-4.2-.854-1.396-1.428-3.29-2.01-5.795-1.78-.757.07-1.557.071-2.517.004-3.742-.26-6.638 1.134-8.376 4.034-1.676 2.796-3.398 6.174-3.464 10.037V52.31c.095 4.624 2.07 8.135 5.872 10.437z"/></g></g></g></g></svg>